<?xml version="1.0" encoding="UTF-8"?>
<svg xmlns="http://www.w3.org/2000/svg" xmlns:xlink="http://www.w3.org/1999/xlink" width="788.18pt" height="225.17pt" viewBox="0 0 788.18 225.17" version="1.1">
<defs>
<clipPath id="clip1">
  <path d="M 0 0 L 788.179688 0 L 788.179688 225.171875 L 0 225.171875 Z M 0 0 "/>
</clipPath>
</defs>
<g id="surface1">
<g clip-path="url(#clip1)" clip-rule="nonzero">
<path style=" stroke:none;fill-rule:nonzero;fill:rgb(10.998535%,9.799194%,8.599854%);fill-opacity:1;" d="M 788.175781 202.765625 C 788.175781 215.300781 778.105469 225.167969 765.546875 225.167969 L 22.09375 225.167969 C 9.535156 225.167969 0 215.597656 0 203.058594 L 0 22.078125 C 0 9.539063 9.535156 0.00390625 22.09375 0.00390625 L 765.546875 0.00390625 C 778.105469 0.00390625 788.070313 9.539063 788.070313 22.078125 L 788.070313 203.058594 "/>
</g>
<path style=" stroke:none;fill-rule:nonzero;fill:rgb(100%,100%,100%);fill-opacity:1;" d="M 172.59375 111.304688 C 172.414063 92.214844 188.230469 82.917969 188.953125 82.488281 C 180.003906 69.425781 166.117188 67.648438 161.242188 67.503906 C 149.59375 66.28125 138.285156 74.488281 132.359375 74.488281 C 126.304688 74.488281 117.140625 67.628906 107.300781 67.824219 C 94.617188 68.03125 82.75 75.371094 76.25 86.765625 C 62.828125 110.011719 72.839844 144.164063 85.699219 162.964844 C 92.136719 172.160156 99.65625 182.441406 109.496094 182.074219 C 119.121094 181.671875 122.714844 175.941406 134.339844 175.941406 C 145.859375 175.941406 149.234375 182.074219 159.273438 181.84375 C 169.605469 181.671875 176.105469 172.597656 182.3125 163.3125 C 189.757813 152.765625 192.738281 142.382813 192.859375 141.84375 C 192.613281 141.765625 172.789063 134.199219 172.59375 111.304688 "/>
<path style=" stroke:none;fill-rule:nonzero;fill:rgb(100%,100%,100%);fill-opacity:1;" d="M 153.628906 55.148438 C 158.808594 48.671875 162.359375 39.855469 161.359375 30.917969 C 153.867188 31.25 144.503906 36.097656 139.109375 42.4375 C 134.328125 48.019531 130.054688 57.171875 131.160156 65.773438 C 139.589844 66.398438 148.226563 61.519531 153.628906 55.148438 "/>
<path style=" stroke:none;fill-rule:nonzero;fill:rgb(100%,100%,100%);fill-opacity:1;" d="M 288.894531 147.871094 L 282.234375 127.28125 C 281.519531 125.183594 280.199219 120.226563 278.25 112.429688 L 278.019531 112.429688 C 277.234375 115.785156 275.980469 120.734375 274.269531 127.28125 L 267.714844 147.871094 Z M 311.933594 180.761719 L 298.484375 180.761719 L 291.109375 157.589844 L 265.496094 157.589844 L 258.472656 180.761719 L 245.371094 180.761719 L 270.769531 101.902344 L 286.433594 101.902344 "/>
<path style=" stroke:none;fill-rule:nonzero;fill:rgb(100%,100%,100%);fill-opacity:1;" d="M 364.351563 152.085938 C 364.351563 146.550781 363.101563 141.988281 360.609375 138.398438 C 357.875 134.65625 354.207031 132.777344 349.617188 132.777344 C 346.492188 132.777344 343.652344 133.824219 341.136719 135.878906 C 338.597656 137.960938 336.9375 140.664063 336.160156 144.023438 C 335.769531 145.585938 335.578125 146.863281 335.578125 147.871094 L 335.578125 157.355469 C 335.578125 161.488281 336.839844 164.980469 339.367188 167.820313 C 341.914063 170.679688 345.203125 172.089844 349.261719 172.089844 C 354.019531 172.089844 357.726563 170.269531 360.371094 166.597656 C 363.03125 162.925781 364.351563 158.097656 364.351563 152.085938 M 377.222656 151.621094 C 377.222656 161.292969 374.613281 168.9375 369.378906 174.554688 C 364.703125 179.546875 358.886719 182.039063 351.953125 182.039063 C 344.464844 182.039063 339.078125 179.339844 335.804688 173.964844 L 335.578125 173.964844 L 335.578125 203.914063 L 322.9375 203.914063 L 322.9375 142.609375 C 322.9375 136.53125 322.785156 130.300781 322.472656 123.894531 L 333.578125 123.894531 L 334.285156 132.90625 L 334.527344 132.90625 C 338.730469 126.117188 345.136719 122.726563 353.707031 122.726563 C 360.40625 122.726563 366.015625 125.378906 370.496094 130.683594 C 374.980469 135.996094 377.222656 142.972656 377.222656 151.621094 "/>
<path style=" stroke:none;fill-rule:nonzero;fill:rgb(100%,100%,100%);fill-opacity:1;" d="M 429.753906 152.085938 C 429.753906 146.550781 428.503906 141.988281 426.003906 138.398438 C 423.269531 134.65625 419.609375 132.777344 415.011719 132.777344 C 411.886719 132.777344 409.054688 133.824219 406.527344 135.878906 C 403.992188 137.960938 402.339844 140.664063 401.5625 144.023438 C 401.160156 145.585938 400.972656 146.863281 400.972656 147.871094 L 400.972656 157.355469 C 400.972656 161.488281 402.230469 164.980469 404.769531 167.820313 C 407.304688 170.679688 410.59375 172.089844 414.660156 172.089844 C 419.410156 172.089844 423.128906 170.269531 425.773438 166.597656 C 428.414063 162.925781 429.753906 158.097656 429.753906 152.085938 M 442.613281 151.621094 C 442.613281 161.292969 440.007813 168.9375 434.773438 174.554688 C 430.09375 179.546875 424.289063 182.039063 417.34375 182.039063 C 409.859375 182.039063 404.484375 179.339844 401.203125 173.964844 L 400.972656 173.964844 L 400.972656 203.914063 L 388.339844 203.914063 L 388.339844 142.609375 C 388.339844 136.53125 388.175781 130.300781 387.871094 123.894531 L 398.980469 123.894531 L 399.6875 132.90625 L 399.929688 132.90625 C 404.125 126.117188 410.519531 122.726563 419.109375 122.726563 C 425.808594 122.726563 431.40625 125.378906 435.898438 130.683594 C 440.378906 135.996094 442.613281 142.972656 442.613281 151.621094 "/>
<path style=" stroke:none;fill-rule:nonzero;fill:rgb(100%,100%,100%);fill-opacity:1;" d="M 515.738281 158.640625 C 515.738281 165.347656 513.414063 170.804688 508.726563 175.019531 C 503.59375 179.625 496.4375 181.917969 487.257813 181.917969 C 478.777344 181.917969 471.964844 180.285156 466.8125 177.011719 L 469.742188 166.484375 C 475.296875 169.835938 481.378906 171.507813 488.011719 171.507813 C 492.769531 171.507813 496.476563 170.4375 499.136719 168.292969 C 501.78125 166.144531 503.101563 163.269531 503.101563 159.679688 C 503.101563 156.480469 502.011719 153.777344 499.835938 151.59375 C 497.652344 149.402344 494.011719 147.371094 488.9375 145.496094 C 475.132813 140.335938 468.242188 132.796875 468.242188 122.878906 C 468.242188 116.394531 470.652344 111.078125 475.492188 106.949219 C 480.324219 102.804688 486.761719 100.726563 494.800781 100.726563 C 501.976563 100.726563 507.941406 101.984375 512.691406 104.472656 L 509.539063 114.769531 C 505.09375 112.359375 500.066406 111.144531 494.441406 111.144531 C 489.992188 111.144531 486.527344 112.234375 484.035156 114.421875 C 481.941406 116.367188 480.882813 118.753906 480.882813 121.558594 C 480.882813 124.671875 482.082031 127.253906 484.503906 129.273438 C 486.597656 131.148438 490.425781 133.171875 495.96875 135.363281 C 502.753906 138.097656 507.734375 141.289063 510.941406 144.953125 C 514.136719 148.621094 515.738281 153.1875 515.738281 158.640625 "/>
<path style=" stroke:none;fill-rule:nonzero;fill:rgb(100%,100%,100%);fill-opacity:1;" d="M 557.503906 133.371094 L 543.582031 133.371094 L 543.582031 160.980469 C 543.582031 168 546.035156 171.507813 550.960938 171.507813 C 553.207031 171.507813 555.082031 171.3125 556.566406 170.929688 L 556.910156 180.519531 C 554.433594 181.457031 551.148438 181.921875 547.09375 181.921875 C 542.097656 181.921875 538.195313 180.402344 535.394531 177.367188 C 532.589844 174.324219 531.179688 169.207031 531.179688 162.035156 L 531.179688 133.371094 L 522.871094 133.371094 L 522.871094 123.886719 L 531.179688 123.886719 L 531.179688 113.480469 L 543.582031 109.730469 L 543.582031 123.886719 L 557.503906 123.886719 "/>
<path style=" stroke:none;fill-rule:nonzero;fill:rgb(100%,100%,100%);fill-opacity:1;" d="M 607.226563 152.265625 C 607.226563 147.023438 606.097656 142.53125 603.828125 138.773438 C 601.1875 134.238281 597.402344 131.96875 592.492188 131.96875 C 587.410156 131.96875 583.550781 134.238281 580.90625 138.773438 C 578.640625 142.53125 577.523438 147.105469 577.523438 152.507813 C 577.523438 157.746094 578.640625 162.242188 580.90625 165.992188 C 583.628906 170.527344 587.453125 172.792969 592.382813 172.792969 C 597.203125 172.792969 600.992188 170.492188 603.714844 165.875 C 606.054688 162.042969 607.226563 157.507813 607.226563 152.265625 M 620.332031 151.855469 C 620.332031 160.597656 617.84375 167.769531 612.851563 173.386719 C 607.617188 179.160156 600.671875 182.035156 592.027344 182.035156 C 583.667969 182.035156 577.035156 179.269531 572.078125 173.730469 C 567.121094 168.195313 564.644531 161.210938 564.644531 152.800781 C 564.644531 143.976563 567.195313 136.765625 572.308594 131.15625 C 577.410156 125.53125 584.292969 122.726563 592.953125 122.726563 C 601.292969 122.726563 608.011719 125.492188 613.078125 131.03125 C 617.921875 136.421875 620.332031 143.355469 620.332031 151.855469 "/>
<path style=" stroke:none;fill-rule:nonzero;fill:rgb(100%,100%,100%);fill-opacity:1;" d="M 661.390625 135.003906 C 660.144531 134.78125 658.820313 134.65625 657.417969 134.65625 C 652.980469 134.65625 649.535156 136.34375 647.113281 139.691406 C 645.015625 142.65625 643.960938 146.398438 643.960938 150.917969 L 643.960938 180.753906 L 631.335938 180.753906 L 631.441406 141.800781 C 631.441406 135.246094 631.28125 129.277344 630.980469 123.894531 L 641.980469 123.894531 L 642.445313 134.78125 L 642.785156 134.78125 C 644.113281 131.039063 646.230469 128.03125 649.105469 125.773438 C 651.910156 123.742188 654.964844 122.726563 658.242188 122.726563 C 659.402344 122.726563 660.464844 122.804688 661.390625 122.949219 "/>
<path style=" stroke:none;fill-rule:nonzero;fill:rgb(100%,100%,100%);fill-opacity:1;" d="M 705.84375 146.355469 C 705.933594 142.621094 705.113281 139.378906 703.398438 136.648438 C 701.210938 133.136719 697.84375 131.378906 693.324219 131.378906 C 689.199219 131.378906 685.84375 133.101563 683.269531 136.53125 C 681.160156 139.265625 679.910156 142.53125 679.535156 146.355469 Z M 717.890625 149.628906 C 717.890625 151.902344 717.738281 153.800781 717.4375 155.367188 L 679.535156 155.367188 C 679.679688 160.980469 681.519531 165.277344 685.03125 168.242188 C 688.21875 170.894531 692.359375 172.207031 697.433594 172.207031 C 703.03125 172.207031 708.148438 171.3125 712.757813 169.519531 L 714.738281 178.296875 C 709.363281 180.636719 703.007813 181.816406 695.664063 181.816406 C 686.859375 181.816406 679.929688 179.214844 674.902344 174.027344 C 669.882813 168.847656 667.359375 161.875 667.359375 153.140625 C 667.359375 144.570313 669.695313 137.425781 674.386719 131.726563 C 679.285156 125.644531 685.921875 122.609375 694.261719 122.609375 C 702.449219 122.609375 708.664063 125.644531 712.882813 131.726563 C 716.222656 136.566406 717.890625 142.53125 717.890625 149.628906 "/>
<path style=" stroke:none;fill-rule:nonzero;fill:rgb(100%,100%,100%);fill-opacity:1;" d="M 277.679688 53.566406 C 277.679688 49.035156 276.476563 45.570313 274.082031 43.152344 C 271.679688 40.738281 268.199219 39.539063 263.589844 39.539063 C 261.632813 39.539063 259.972656 39.667969 258.589844 39.941406 L 258.589844 68.90625 C 259.355469 69.023438 260.757813 69.078125 262.785156 69.078125 C 267.535156 69.078125 271.214844 67.761719 273.785156 65.109375 C 276.378906 62.46875 277.679688 58.621094 277.679688 53.566406 M 284.21875 53.386719 C 284.21875 60.359375 282.136719 65.613281 277.957031 69.136719 C 274.089844 72.386719 268.589844 74.023438 261.472656 74.023438 C 257.945313 74.023438 254.910156 73.871094 252.382813 73.558594 L 252.382813 35.457031 C 255.675781 34.921875 259.242188 34.652344 263.074219 34.652344 C 269.859375 34.652344 274.972656 36.128906 278.429688 39.082031 C 282.285156 42.410156 284.21875 47.179688 284.21875 53.386719 "/>
<path style=" stroke:none;fill-rule:nonzero;fill:rgb(100%,100%,100%);fill-opacity:1;" d="M 312.496094 59.683594 C 312.496094 57.101563 311.933594 54.902344 310.824219 53.054688 C 309.523438 50.824219 307.667969 49.703125 305.253906 49.703125 C 302.769531 49.703125 300.859375 50.824219 299.566406 53.054688 C 298.449219 54.902344 297.894531 57.144531 297.894531 59.789063 C 297.894531 62.371094 298.449219 64.585938 299.566406 66.433594 C 300.898438 68.65625 302.769531 69.773438 305.199219 69.773438 C 307.566406 69.773438 309.433594 68.640625 310.773438 66.367188 C 311.914063 64.488281 312.496094 62.265625 312.496094 59.683594 M 318.9375 59.484375 C 318.9375 63.773438 317.703125 67.300781 315.257813 70.050781 C 312.6875 72.898438 309.273438 74.316406 305.023438 74.316406 C 300.914063 74.316406 297.65625 72.953125 295.21875 70.230469 C 292.789063 67.515625 291.574219 64.085938 291.574219 59.941406 C 291.574219 55.609375 292.824219 52.066406 295.34375 49.308594 C 297.84375 46.546875 301.234375 45.171875 305.488281 45.171875 C 309.59375 45.171875 312.882813 46.535156 315.363281 49.25 C 317.746094 51.894531 318.9375 55.308594 318.9375 59.484375 "/>
<path style=" stroke:none;fill-rule:nonzero;fill:rgb(100%,100%,100%);fill-opacity:1;" d="M 365.492188 45.742188 L 356.742188 73.675781 L 351.0625 73.675781 L 347.4375 61.554688 C 346.527344 58.527344 345.777344 55.511719 345.195313 52.527344 L 345.09375 52.527344 C 344.546875 55.59375 343.796875 58.597656 342.839844 61.554688 L 338.992188 73.675781 L 333.238281 73.675781 L 325.023438 45.742188 L 331.410156 45.742188 L 334.5625 59.019531 C 335.332031 62.164063 335.964844 65.144531 336.464844 67.984375 L 336.578125 67.984375 C 337.046875 65.644531 337.796875 62.675781 338.886719 59.074219 L 342.839844 45.742188 L 347.894531 45.742188 L 351.6875 58.785156 C 352.617188 61.976563 353.367188 65.039063 353.929688 67.984375 L 354.101563 67.984375 C 354.527344 65.109375 355.152344 62.050781 356.011719 58.785156 L 359.40625 45.742188 "/>
<path style=" stroke:none;fill-rule:nonzero;fill:rgb(100%,100%,100%);fill-opacity:1;" d="M 397.679688 73.675781 L 391.472656 73.675781 L 391.472656 57.683594 C 391.472656 52.742188 389.597656 50.289063 385.835938 50.289063 C 383.996094 50.289063 382.515625 50.96875 381.355469 52.316406 C 380.210938 53.683594 379.632813 55.269531 379.632813 57.109375 L 379.632813 73.675781 L 373.425781 73.675781 L 373.425781 53.734375 C 373.425781 51.277344 373.355469 48.617188 373.199219 45.742188 L 378.652344 45.742188 L 378.945313 50.109375 L 379.121094 50.109375 C 379.835938 48.753906 380.914063 47.628906 382.335938 46.742188 C 384.015625 45.699219 385.902344 45.160156 387.964844 45.160156 C 390.570313 45.160156 392.738281 46.019531 394.464844 47.695313 C 396.605469 49.761719 397.679688 52.859375 397.679688 56.949219 "/>
<path style=" stroke:none;fill-rule:nonzero;fill:rgb(100%,100%,100%);fill-opacity:1;" d="M 408.589844 73.675781 L 414.8125 73.675781 L 414.8125 32.921875 L 408.589844 32.921875 Z M 408.589844 73.675781 "/>
<path style=" stroke:none;fill-rule:nonzero;fill:rgb(100%,100%,100%);fill-opacity:1;" d="M 444.925781 59.683594 C 444.925781 57.101563 444.363281 54.902344 443.257813 53.054688 C 441.949219 50.824219 440.097656 49.703125 437.683594 49.703125 C 435.199219 49.703125 433.289063 50.824219 431.984375 53.054688 C 430.878906 54.902344 430.324219 57.144531 430.324219 59.789063 C 430.324219 62.371094 430.878906 64.585938 431.984375 66.433594 C 433.324219 68.65625 435.199219 69.773438 437.613281 69.773438 C 439.996094 69.773438 441.863281 68.640625 443.203125 66.367188 C 444.34375 64.488281 444.925781 62.265625 444.925781 59.683594 M 451.363281 59.484375 C 451.363281 63.773438 450.132813 67.300781 447.675781 70.050781 C 445.113281 72.898438 441.699219 74.316406 437.445313 74.316406 C 433.34375 74.316406 430.085938 72.953125 427.648438 70.230469 C 425.21875 67.515625 424.003906 64.085938 424.003906 59.941406 C 424.003906 55.609375 425.246094 52.066406 427.761719 49.308594 C 430.273438 46.546875 433.648438 45.171875 437.914063 45.171875 C 442.007813 45.171875 445.308594 46.535156 447.789063 49.25 C 450.167969 51.894531 451.363281 55.308594 451.363281 59.484375 "/>
<path style=" stroke:none;fill-rule:nonzero;fill:rgb(100%,100%,100%);fill-opacity:1;" d="M 474.972656 64.074219 L 474.972656 59.769531 C 468.117188 59.65625 464.6875 61.539063 464.6875 65.40625 C 464.6875 66.859375 465.101563 67.941406 465.902344 68.675781 C 466.699219 69.398438 467.703125 69.761719 468.921875 69.761719 C 470.285156 69.761719 471.546875 69.335938 472.722656 68.476563 C 473.886719 67.621094 474.597656 66.511719 474.859375 65.175781 C 474.941406 64.859375 474.972656 64.492188 474.972656 64.074219 M 481.421875 73.675781 L 475.84375 73.675781 L 475.386719 70.460938 L 475.207031 70.460938 C 473.285156 73.03125 470.574219 74.308594 467.054688 74.308594 C 464.402344 74.308594 462.269531 73.46875 460.660156 71.769531 C 459.203125 70.246094 458.492188 68.34375 458.492188 66.09375 C 458.492188 62.683594 459.910156 60.074219 462.777344 58.269531 C 465.617188 56.46875 469.636719 55.59375 474.804688 55.628906 L 474.804688 55.109375 C 474.804688 51.429688 472.875 49.59375 469.019531 49.59375 C 466.257813 49.59375 463.828125 50.289063 461.730469 51.660156 L 460.472656 47.582031 C 463.078125 45.972656 466.257813 45.171875 470.042969 45.171875 C 477.367188 45.171875 481.011719 49.019531 481.011719 56.726563 L 481.011719 67.011719 C 481.011719 69.800781 481.152344 72.03125 481.421875 73.675781 "/>
<path style=" stroke:none;fill-rule:nonzero;fill:rgb(100%,100%,100%);fill-opacity:1;" d="M 510.28125 61.898438 L 510.28125 57.242188 C 510.28125 56.441406 510.21875 55.78125 510.101563 55.289063 C 509.757813 53.796875 509.007813 52.53125 507.84375 51.519531 C 506.691406 50.5 505.316406 50 503.691406 50 C 501.386719 50 499.566406 50.914063 498.242188 52.753906 C 496.90625 54.601563 496.242188 56.949219 496.242188 59.816406 C 496.242188 62.585938 496.886719 64.835938 498.15625 66.550781 C 499.503906 68.390625 501.308594 69.308594 503.566406 69.308594 C 505.613281 69.308594 507.261719 68.539063 508.476563 67.003906 C 509.675781 65.59375 510.28125 63.886719 510.28125 61.898438 M 516.710938 73.675781 L 511.191406 73.675781 L 510.898438 69.191406 L 510.726563 69.191406 C 508.96875 72.605469 505.976563 74.316406 501.769531 74.316406 C 498.386719 74.316406 495.601563 72.988281 493.378906 70.34375 C 491.15625 67.703125 490.050781 64.273438 490.050781 60.058594 C 490.050781 55.53125 491.242188 51.875 493.652344 49.074219 C 495.996094 46.464844 498.867188 45.171875 502.28125 45.171875 C 506.039063 45.171875 508.664063 46.429688 510.15625 48.964844 L 510.28125 48.964844 L 510.28125 32.925781 L 516.480469 32.925781 L 516.480469 66.148438 C 516.480469 68.871094 516.558594 71.378906 516.710938 73.675781 "/>
<path style=" stroke:none;fill-rule:nonzero;fill:rgb(100%,100%,100%);fill-opacity:1;" d="M 563.378906 59.683594 C 563.378906 57.101563 562.816406 54.902344 561.710938 53.054688 C 560.414063 50.824219 558.535156 49.703125 556.144531 49.703125 C 553.648438 49.703125 551.742188 50.824219 550.445313 53.054688 C 549.339844 54.902344 548.777344 57.144531 548.777344 59.789063 C 548.777344 62.371094 549.339844 64.585938 550.445313 66.433594 C 551.789063 68.65625 553.660156 69.773438 556.085938 69.773438 C 558.449219 69.773438 560.308594 68.640625 561.648438 66.367188 C 562.808594 64.488281 563.378906 62.265625 563.378906 59.683594 M 569.824219 59.484375 C 569.824219 63.773438 568.59375 67.300781 566.128906 70.050781 C 563.574219 72.898438 560.15625 74.316406 555.910156 74.316406 C 551.796875 74.316406 548.535156 72.953125 546.109375 70.230469 C 543.679688 67.515625 542.464844 64.085938 542.464844 59.941406 C 542.464844 55.609375 543.714844 52.066406 546.21875 49.308594 C 548.734375 46.546875 552.117188 45.171875 556.359375 45.171875 C 560.46875 45.171875 563.753906 46.535156 566.257813 49.25 C 568.628906 51.894531 569.824219 55.308594 569.824219 59.484375 "/>
<path style=" stroke:none;fill-rule:nonzero;fill:rgb(100%,100%,100%);fill-opacity:1;" d="M 603.203125 73.675781 L 596.988281 73.675781 L 596.988281 57.683594 C 596.988281 52.742188 595.113281 50.289063 591.363281 50.289063 C 589.523438 50.289063 588.023438 50.96875 586.882813 52.316406 C 585.738281 53.683594 585.148438 55.269531 585.148438 57.109375 L 585.148438 73.675781 L 578.953125 73.675781 L 578.953125 53.734375 C 578.953125 51.277344 578.863281 48.617188 578.71875 45.742188 L 584.183594 45.742188 L 584.472656 50.109375 L 584.648438 50.109375 C 585.363281 48.753906 586.433594 47.628906 587.863281 46.742188 C 589.542969 45.699219 591.433594 45.160156 593.488281 45.160156 C 596.105469 45.160156 598.273438 46.019531 599.988281 47.695313 C 602.136719 49.761719 603.203125 52.859375 603.203125 56.949219 "/>
<path style=" stroke:none;fill-rule:nonzero;fill:rgb(100%,100%,100%);fill-opacity:1;" d="M 644.996094 50.394531 L 638.15625 50.394531 L 638.15625 63.96875 C 638.15625 67.414063 639.351563 69.136719 641.78125 69.136719 C 642.890625 69.136719 643.800781 69.039063 644.53125 68.851563 L 644.710938 73.558594 C 643.476563 74.015625 641.871094 74.257813 639.882813 74.257813 C 637.425781 74.257813 635.515625 73.507813 634.140625 72.015625 C 632.765625 70.511719 632.066406 68.015625 632.066406 64.476563 L 632.066406 50.394531 L 627.976563 50.394531 L 627.976563 45.742188 L 632.066406 45.742188 L 632.066406 40.625 L 638.15625 38.792969 L 638.15625 45.742188 L 644.996094 45.742188 "/>
<path style=" stroke:none;fill-rule:nonzero;fill:rgb(100%,100%,100%);fill-opacity:1;" d="M 677.859375 73.675781 L 671.660156 73.675781 L 671.660156 57.796875 C 671.660156 52.785156 669.785156 50.289063 666.015625 50.289063 C 663.160156 50.289063 661.175781 51.742188 660.113281 54.636719 C 659.910156 55.253906 659.820313 56.003906 659.820313 56.878906 L 659.820313 73.675781 L 653.613281 73.675781 L 653.613281 32.921875 L 659.820313 32.921875 L 659.820313 49.761719 L 659.945313 49.761719 C 661.890625 46.695313 664.6875 45.160156 668.320313 45.160156 C 670.898438 45.160156 673.019531 46.019531 674.703125 47.695313 C 676.804688 49.804688 677.859375 52.929688 677.859375 57.074219 "/>
<path style=" stroke:none;fill-rule:nonzero;fill:rgb(100%,100%,100%);fill-opacity:1;" d="M 705.859375 56.777344 C 705.894531 54.941406 705.492188 53.347656 704.648438 52.011719 C 703.585938 50.289063 701.929688 49.421875 699.71875 49.421875 C 697.679688 49.421875 696.039063 50.257813 694.753906 51.949219 C 693.734375 53.300781 693.128906 54.902344 692.929688 56.777344 Z M 711.789063 58.386719 C 711.789063 59.492188 711.699219 60.441406 711.558594 61.210938 L 692.929688 61.210938 C 693.003906 63.96875 693.894531 66.066406 695.628906 67.523438 C 697.199219 68.832031 699.238281 69.480469 701.71875 69.480469 C 704.488281 69.480469 706.988281 69.039063 709.253906 68.15625 L 710.21875 72.46875 C 707.59375 73.613281 704.460938 74.191406 700.859375 74.191406 C 696.539063 74.191406 693.128906 72.914063 690.652344 70.382813 C 688.199219 67.824219 686.945313 64.40625 686.945313 60.117188 C 686.945313 55.902344 688.089844 52.394531 690.394531 49.59375 C 692.824219 46.597656 696.074219 45.109375 700.164063 45.109375 C 704.199219 45.109375 707.238281 46.597656 709.308594 49.59375 C 710.949219 51.964844 711.789063 54.902344 711.789063 58.386719 "/>
</g>
</svg>
