<!DOCTYPE svg PUBLIC "-//W3C//DTD SVG 20010904//EN" "http://www.w3.org/TR/2001/REC-SVG-20010904/DTD/svg10.dtd">
<svg version="1.0" xmlns="http://www.w3.org/2000/svg" width="1200px" height="343px" viewBox="0 0 12000 3430" preserveAspectRatio="xMidYMid meet">
<g id="layer101" fill="#1c1a16" stroke="none">
<path d="M0 1715 l0 -1715 6000 0 6000 0 0 1715 0 1715 -6000 0 -6000 0 0 -1715z"/>
</g>
<g id="layer102" fill="#e23435" stroke="none">
<path d="M1327 2933 c-4 -3 -7 -504 -7 -1113 0 -1089 0 -1107 20 -1125 13 -12 28 -16 47 -12 16 3 197 103 403 222 206 120 395 229 420 243 25 14 126 72 225 130 99 57 200 116 225 130 25 14 88 50 140 81 52 31 107 62 121 71 15 8 103 59 197 114 99 56 174 106 177 117 3 10 2 26 -4 36 -8 17 -1617 953 -1637 953 -9 0 -36 13 -94 47 -198 116 -216 124 -233 106z"/>
</g>
<g id="layer103" fill="#dc363c" stroke="none">
<path d="M1 3273 c1 -116 4 -144 9 -106 18 123 130 235 255 253 35 5 4 8 -107 9 l-158 1 1 -157z"/>
<path d="M11725 3420 c128 -19 243 -131 265 -259 5 -32 8 1 9 112 l1 157 -162 -1 c-113 -1 -148 -4 -113 -9z"/>
<path d="M11990 1667 l0 -1424 -30 -61 c-47 -93 -130 -155 -229 -172 -32 -5 1 -8 112 -9 l157 -1 0 1545 c0 850 -2 1545 -5 1545 -3 0 -5 -641 -5 -1423z"/>
<path d="M1327 2933 c-4 -3 -7 -504 -7 -1113 0 -1089 0 -1107 20 -1125 13 -12 28 -16 47 -12 16 3 197 103 403 222 206 120 395 229 420 243 25 14 126 72 225 130 99 57 200 116 225 130 25 14 88 50 140 81 52 31 107 62 121 71 15 8 103 59 197 114 99 56 174 106 177 117 3 10 2 26 -4 36 -8 17 -1617 953 -1637 953 -9 0 -36 13 -94 47 -198 116 -216 124 -233 106z m1223 -1056 c0 -2 -15 -17 -33 -35 l-33 -32 -34 35 -34 35 67 0 c37 0 67 -1 67 -3z"/>
<path d="M1 158 l-1 -158 153 1 c112 1 140 3 104 9 -60 10 -123 47 -170 99 -47 53 -68 94 -77 156 -5 35 -8 4 -9 -107z"/>
</g>
<g id="layer104" fill="#cc3952" stroke="none">
<path d="M1327 2933 c-4 -3 -7 -504 -7 -1113 0 -1089 0 -1107 20 -1125 13 -12 28 -16 47 -12 16 3 197 103 403 222 206 120 395 229 420 243 25 14 126 72 225 130 99 57 200 116 225 130 25 14 88 50 140 81 52 31 107 62 121 71 15 8 103 59 197 114 99 56 174 106 177 117 3 10 2 26 -4 36 -8 17 -1617 953 -1637 953 -9 0 -36 13 -94 47 -198 116 -216 124 -233 106z m1296 -985 c-44 -46 -93 -96 -107 -112 l-27 -30 -112 112 -112 112 220 0 220 0 -82 -82z"/>
</g>
<g id="layer105" fill="#277eb2" stroke="none">
<path d="M1327 2933 c-4 -3 -7 -504 -7 -1113 0 -1089 0 -1107 20 -1125 13 -12 28 -16 47 -12 16 3 197 103 403 222 206 120 395 229 420 243 25 14 126 72 225 130 99 57 200 116 225 130 25 14 88 50 140 81 52 31 107 62 121 71 15 8 103 59 197 114 99 56 174 106 177 117 3 10 2 26 -3 36 -9 15 -435 269 -483 288 -10 4 -61 -42 -168 -151 l-154 -156 -238 238 -239 239 246 5 247 5 -420 243 c-231 133 -424 242 -429 242 -9 0 -36 13 -94 47 -198 116 -216 124 -233 106z"/>
</g>
<g id="layer106" fill="#b33e70" stroke="none">
<path d="M1327 2933 c-4 -3 -7 -456 -7 -1005 l0 -998 140 0 140 0 -127 -126 c-122 -120 -126 -125 -93 -121 21 3 185 92 410 222 206 120 395 229 420 243 25 14 126 72 225 130 99 57 200 116 225 130 25 14 88 50 140 81 52 31 107 62 121 71 15 8 103 59 197 114 99 56 174 106 177 117 3 10 2 26 -3 36 -9 15 -435 269 -483 288 -10 4 -61 -42 -168 -151 l-154 -156 -238 238 -239 239 246 5 247 5 -420 243 c-231 133 -424 242 -429 242 -9 0 -36 13 -94 47 -198 116 -216 124 -233 106z"/>
</g>
<g id="layer107" fill="#a13f81" stroke="none">
<path d="M1327 2933 c-4 -3 -7 -456 -7 -1005 l0 -998 140 0 140 0 -127 -126 c-122 -120 -126 -125 -93 -121 21 3 185 92 410 222 206 120 395 229 420 243 25 14 126 72 225 130 99 58 203 117 230 133 28 15 109 63 181 106 72 43 198 116 281 163 155 87 183 112 165 146 -6 11 -119 82 -253 158 l-242 139 -155 -157 -154 -157 -62 59 c-33 32 -214 210 -401 395 l-340 337 145 0 145 0 -155 90 c-85 49 -159 90 -165 90 -10 0 -36 13 -95 47 -198 116 -216 124 -233 106z"/>
</g>
<g id="layer108" fill="#3889b4" stroke="none">
<path d="M1327 2933 c-4 -3 -7 -456 -7 -1005 l0 -998 140 0 140 0 -127 -126 c-122 -120 -126 -125 -93 -121 21 3 185 92 410 222 206 120 395 229 420 243 25 14 126 72 225 130 99 58 205 118 235 135 30 17 89 51 130 77 41 25 164 97 272 159 108 62 204 122 214 132 33 37 8 57 -246 203 l-243 140 -155 -158 -155 -158 -61 58 c-174 166 -906 900 -906 909 0 6 -35 45 -78 88 -72 71 -98 87 -115 70z"/>
</g>
<g id="layer109" fill="#4f99b8" stroke="none">
<path d="M1327 2933 c-4 -3 -7 -379 -7 -835 l0 -828 308 -2 307 -3 -290 -290 c-200 -199 -285 -290 -273 -293 22 -4 37 4 443 238 193 111 370 214 395 228 25 14 126 72 225 130 99 58 205 118 235 135 30 17 89 51 130 77 41 25 164 97 272 159 108 62 204 122 214 132 33 37 8 57 -246 203 l-243 140 -155 -158 -155 -158 -61 58 c-174 166 -906 900 -906 909 0 6 -35 45 -78 88 -72 71 -98 87 -115 70z"/>
</g>
<g id="layer110" fill="#5ea3ba" stroke="none">
<path d="M1327 2933 c-4 -3 -7 -307 -7 -675 l0 -668 473 0 472 0 -453 -453 c-297 -296 -447 -453 -437 -455 14 -3 189 92 500 273 176 102 291 168 335 193 25 14 126 72 225 130 99 58 205 118 235 135 30 17 89 51 130 77 41 25 164 97 272 159 108 62 204 122 214 132 33 37 8 57 -246 203 l-243 140 -155 -158 -155 -158 -61 58 c-174 166 -906 900 -906 909 0 6 -35 45 -78 88 -72 71 -98 87 -115 70z"/>
</g>
<g id="layer111" fill="#66a9bc" stroke="none">
<path d="M1326 2924 c-3 -9 -6 -270 -6 -580 l0 -564 567 0 568 0 -550 -550 c-373 -373 -543 -550 -530 -550 11 0 130 63 265 141 135 77 285 163 334 191 49 27 119 68 154 89 35 21 65 39 67 39 2 0 97 55 212 121 114 67 233 135 263 152 30 17 89 51 130 77 41 25 164 97 272 159 108 62 204 122 214 132 33 37 8 57 -246 203 l-243 140 -155 -158 -155 -158 -61 58 c-174 166 -906 900 -906 909 0 17 -154 165 -172 165 -9 0 -19 -7 -22 -16z"/>
</g>
<g id="layer112" fill="#6fb0bc" stroke="none">
<path d="M1326 2924 c-3 -9 -6 -227 -6 -485 l0 -469 497 0 498 0 -398 398 c-218 218 -397 402 -397 407 0 17 -154 165 -172 165 -9 0 -19 -7 -22 -16z"/>
</g>
<g id="layer113" fill="#77c4a8" stroke="none">
<path d="M1326 2924 c-3 -9 -6 -155 -6 -325 l0 -309 337 0 338 0 -238 238 c-130 130 -237 242 -237 247 0 17 -154 165 -172 165 -9 0 -19 -7 -22 -16z"/>
<path d="M6428 2641 c-73 -24 -114 -54 -138 -101 -72 -142 45 -279 267 -310 l82 -12 -21 -39 c-15 -29 -18 -49 -14 -74 l7 -35 -53 0 c-169 -1 -270 -173 -192 -329 17 -34 43 -64 73 -86 76 -56 126 -67 316 -72 94 -3 181 -4 195 -2 23 4 21 6 -24 32 -27 15 -64 27 -82 27 l-34 0 34 45 c48 62 62 132 41 203 -13 42 -29 66 -81 116 -89 88 -88 103 13 187 95 79 123 124 123 199 0 71 -25 124 -82 176 -67 62 -141 87 -268 91 -82 2 -117 -1 -162 -16z m346 -70 c51 -32 70 -64 70 -120 0 -58 -18 -86 -96 -146 l-61 -48 -83 11 c-124 16 -186 54 -204 124 -22 80 22 150 116 188 70 29 204 24 258 -9z m-42 -578 c39 -39 46 -96 24 -184 -39 -154 -153 -221 -246 -143 -42 36 -55 91 -40 168 15 78 40 125 86 166 34 30 41 32 91 28 44 -4 60 -11 85 -35z"/>
<path d="M8370 2060 l0 -490 44 0 45 0 7 46 6 46 32 -30 c56 -54 93 -67 186 -67 94 0 141 18 192 72 120 126 115 438 -9 555 -92 87 -278 91 -358 8 -16 -17 -31 -30 -34 -30 -3 0 -4 85 -3 190 l4 190 -56 0 -56 0 0 -490z m410 75 c53 -50 73 -100 78 -194 8 -144 -28 -234 -109 -277 -41 -20 -125 -18 -174 6 -65 31 -88 83 -93 204 -7 157 18 231 92 278 25 15 45 18 103 16 64 -3 76 -7 103 -33z"/>
<path d="M9947 2543 c-4 -3 -7 -23 -7 -44 l0 -37 59 1 c89 0 134 -38 180 -154 l22 -56 -136 -338 c-74 -186 -135 -340 -135 -341 0 -2 24 -4 54 -4 l55 0 19 53 c11 28 49 129 85 222 36 94 73 196 83 228 10 31 20 57 23 57 3 0 22 -48 43 -108 20 -59 64 -185 98 -279 l62 -173 54 0 c30 0 54 2 54 5 0 13 -295 787 -317 830 -51 103 -115 144 -224 145 -36 0 -69 -3 -72 -7z"/>
<path d="M4092 2270 c-99 -26 -166 -64 -232 -130 -68 -69 -104 -135 -130 -236 -24 -91 -25 -145 -5 -237 39 -183 168 -326 355 -392 156 -55 410 -30 559 56 l53 31 -28 30 c-42 44 -96 84 -123 93 l-23 7 18 -32 19 -32 -40 -35 c-22 -20 -65 -47 -95 -62 -49 -23 -67 -26 -165 -26 -101 0 -115 2 -168 28 -116 58 -196 168 -217 304 -35 213 78 446 259 537 108 55 255 72 359 41 l52 -16 0 -115 0 -116 -102 6 c-109 8 -111 5 -36 -34 32 -17 57 -20 189 -20 l153 0 -27 28 c-26 27 -27 31 -27 149 l0 121 -112 26 c-228 52 -359 59 -486 26z"/>
<path d="M9435 2241 c-70 -32 -105 -93 -105 -183 0 -80 30 -126 107 -164 63 -33 92 -38 246 -49 l87 -7 0 -39 c0 -52 -21 -100 -55 -127 -39 -31 -128 -29 -217 2 l-68 24 -12 -40 c-10 -33 -9 -41 3 -49 30 -19 117 -41 185 -46 134 -10 227 39 253 134 6 22 11 147 11 296 l0 257 -39 0 c-37 0 -39 -2 -46 -37 -4 -21 -9 -41 -12 -46 -2 -4 -24 10 -48 31 -24 21 -61 44 -83 50 -59 18 -160 15 -207 -7z m233 -88 c63 -30 102 -107 102 -205 l0 -31 -102 5 c-168 9 -228 46 -228 139 0 35 6 55 23 74 38 45 129 52 205 18z"/>
<path d="M5033 2226 c-226 -71 -309 -361 -153 -538 78 -89 223 -140 338 -118 122 22 200 81 251 190 22 46 26 69 26 140 0 72 -5 94 -28 142 -40 82 -120 152 -204 178 -74 23 -167 25 -230 6z m227 -51 c64 -33 94 -97 95 -205 1 -249 -142 -412 -302 -345 -83 35 -114 92 -114 209 0 127 45 251 114 314 53 50 141 61 207 27z"/>
<path d="M5813 2231 c-96 -25 -177 -93 -220 -185 -23 -51 -28 -74 -28 -141 0 -68 4 -89 29 -139 54 -110 147 -176 277 -197 159 -26 314 62 370 210 16 45 20 72 17 136 -7 133 -68 229 -184 286 -55 27 -79 33 -147 35 -45 2 -96 -1 -114 -5z m169 -41 c90 -25 137 -101 138 -220 0 -198 -101 -360 -225 -360 -160 0 -232 150 -174 360 33 123 96 202 173 220 44 11 47 11 88 0z"/>
<path d="M7513 2223 c-23 -8 -64 -34 -91 -58 -118 -106 -150 -298 -74 -438 95 -175 357 -218 475 -78 24 29 53 89 46 95 -17 17 -341 136 -369 136 -60 0 -67 10 -47 72 23 73 81 145 147 182 47 26 65 30 125 30 49 0 85 -7 120 -22 l50 -22 -47 44 c-26 24 -69 51 -95 60 -58 20 -183 20 -240 -1z m94 -419 c62 -26 115 -54 118 -62 8 -22 -21 -77 -51 -99 -64 -45 -136 -38 -192 20 -41 42 -52 75 -52 153 l0 64 33 -13 c17 -8 82 -36 144 -63z"/>
<path d="M7029 2191 c20 -28 21 -40 21 -475 l0 -446 -57 0 -58 -1 55 -29 c50 -27 64 -29 158 -30 l104 0 -31 26 -31 26 0 449 0 449 26 10 c14 6 42 10 62 10 l37 0 -25 20 c-22 17 -41 20 -153 20 l-128 0 20 -29z"/>
<path d="M2075 1400 c-487 -487 -714 -720 -700 -720 11 0 130 63 265 141 135 77 285 163 334 191 49 27 119 68 154 89 35 21 65 39 67 39 2 0 97 55 212 121 114 67 233 135 263 152 30 17 89 51 130 77 41 25 164 97 272 159 108 62 204 122 214 132 33 37 8 58 -243 202 -132 75 -242 137 -244 137 -2 0 -328 -324 -724 -720z"/>
<path d="M7940 1625 c0 -33 -4 -45 -15 -45 -8 0 -15 -4 -15 -10 0 -5 18 -10 40 -10 22 0 40 5 40 10 0 6 -7 10 -15 10 -11 0 -15 12 -15 45 0 25 -4 45 -10 45 -5 0 -10 -20 -10 -45z"/>
<path d="M8000 1614 c0 -63 16 -70 36 -13 l12 34 11 -28 c6 -16 11 -33 11 -38 0 -5 5 -9 10 -9 6 0 9 25 9 58 -2 55 -2 55 -9 17 -4 -22 -8 -35 -9 -28 0 6 -6 24 -12 40 l-11 28 -13 -35 -13 -35 -1 33 c-2 56 -21 34 -21 -24z"/>
<path d="M5001 963 c-48 -24 -71 -67 -71 -133 0 -94 52 -150 140 -150 60 0 98 24 122 77 36 82 1 176 -79 209 -42 18 -70 17 -112 -3z m114 -58 c20 -19 25 -34 25 -75 0 -44 -5 -56 -29 -81 -16 -16 -37 -29 -46 -29 -9 0 -30 13 -46 29 -24 24 -29 38 -29 76 0 38 5 52 29 76 36 35 64 37 96 4z"/>
<path d="M6821 963 c-48 -24 -71 -67 -71 -134 0 -94 51 -149 138 -149 62 0 100 23 124 77 36 82 1 176 -79 209 -42 18 -70 17 -112 -3z m114 -58 c20 -19 25 -34 25 -75 0 -44 -5 -56 -29 -81 -16 -16 -37 -29 -46 -29 -9 0 -30 13 -46 29 -24 24 -29 38 -29 76 0 38 5 52 29 76 36 35 64 37 96 4z"/>
<path d="M3720 961 c0 -5 22 -69 49 -143 l49 -133 40 -3 39 -3 47 133 c25 73 46 139 46 146 0 7 -14 12 -34 12 -32 0 -35 -2 -41 -40 l-7 -40 -54 0 c-50 0 -54 2 -60 28 -3 15 -7 33 -10 40 -4 14 -64 17 -64 3z m164 -143 c-4 -13 -12 -39 -19 -58 l-12 -34 -16 49 c-22 65 -22 65 19 65 32 0 35 -2 28 -22z"/>
<path d="M4040 825 l0 -145 33 0 c30 1 36 7 95 103 l64 102 -7 -102 -7 -103 31 0 31 0 0 145 0 145 -27 0 c-29 0 -42 -16 -131 -160 l-34 -55 5 108 6 107 -30 0 -29 0 0 -145z"/>
<path d="M4354 954 c3 -9 6 -74 6 -145 l0 -129 65 0 c88 0 129 18 154 69 26 50 26 84 1 138 -28 62 -68 83 -159 83 -63 0 -72 -2 -67 -16z m156 -59 c28 -30 30 -97 3 -134 -15 -19 -30 -27 -61 -29 l-42 -3 0 85 c0 94 11 117 54 109 13 -3 34 -15 46 -28z"/>
<path d="M4660 824 l0 -146 85 3 c96 4 118 18 118 70 0 22 -8 39 -26 55 -24 20 -25 24 -10 36 14 11 63 108 63 123 0 3 -15 5 -32 5 -30 0 -35 -4 -53 -53 -18 -46 -23 -52 -52 -55 l-33 -3 0 55 c0 56 0 56 -30 56 l-30 0 0 -146z m142 -40 c11 -23 10 -29 -11 -45 -13 -11 -34 -19 -47 -19 -22 0 -24 4 -24 45 0 45 0 45 35 45 28 0 38 -5 47 -26z"/>
<path d="M5410 825 l0 -145 65 0 c36 0 81 6 100 14 96 40 99 191 6 253 -27 18 -48 23 -102 23 l-69 0 0 -145z m147 85 c9 0 33 -65 33 -89 0 -45 -44 -91 -86 -91 l-34 0 0 94 c0 103 4 109 55 94 16 -4 31 -8 32 -8z"/>
<path d="M5817 903 c14 -38 38 -102 53 -143 28 -75 28 -75 67 -78 l40 -3 47 134 c25 74 46 140 46 146 0 6 -15 11 -33 11 -30 0 -34 -4 -43 -37 -9 -37 -10 -38 -61 -41 l-52 -3 -11 40 c-10 38 -13 41 -45 41 l-34 0 26 -67z m136 -115 c-8 -29 -16 -54 -18 -56 -3 -3 -35 87 -35 100 0 4 16 8 34 8 l35 0 -16 -52z"/>
<path d="M6120 824 l0 -146 84 3 c100 5 126 21 126 78 0 20 -6 43 -13 52 -18 24 -72 49 -107 49 -30 0 -30 0 -30 55 0 54 0 55 -30 55 l-30 0 0 -146z m124 -14 c20 -7 26 -16 26 -40 0 -24 -6 -33 -26 -40 -54 -21 -64 -15 -64 40 0 55 10 61 64 40z"/>
<path d="M6385 825 l0 -145 76 0 c61 0 81 4 102 20 35 28 41 52 23 95 -16 38 -62 65 -111 65 -24 0 -25 3 -25 55 l0 55 -32 0 -33 0 0 -145z m135 -25 c11 -11 20 -24 20 -30 0 -19 -40 -50 -64 -50 -32 0 -38 11 -30 59 6 35 10 41 30 41 13 0 33 -9 44 -20z"/>
<path d="M7090 825 l0 -145 29 0 c26 0 36 10 90 97 l61 97 0 -97 c0 -97 0 -97 25 -97 l25 0 0 145 0 145 -24 0 c-19 0 -37 -20 -90 -101 l-66 -102 0 102 0 101 -25 0 -25 0 0 -145z"/>
</g>
<g id="layer114" fill="#83bfbd" stroke="none">
<path d="M1332 2928 c-9 -9 -12 -95 -12 -325 l0 -313 337 0 338 0 -238 238 c-130 130 -237 242 -237 247 0 14 -152 165 -166 165 -5 0 -15 -5 -22 -12z"/>
</g>
<g id="layer115" fill="#f39879" stroke="none">
<path d="M2257 1582 l-538 -538 3 -87 3 -87 101 58 c55 33 125 73 155 89 87 49 282 161 304 175 24 15 306 177 390 225 33 19 76 44 96 56 20 12 140 82 267 155 127 74 238 142 248 153 33 37 8 57 -243 202 -132 75 -242 137 -244 137 -2 0 -246 -242 -542 -538z"/>
</g>
<g id="layer116" fill="#8ec8b3" stroke="none">
<path d="M11755 3416 c63 -20 98 -41 144 -87 46 -46 67 -81 87 -144 12 -36 13 -27 13 103 l1 142 -142 -1 c-130 0 -139 -1 -103 -13z"/>
<path d="M1332 2928 c-8 -8 -12 -48 -12 -115 l0 -103 128 0 127 1 -38 35 c-21 20 -36 38 -33 42 8 7 -134 152 -149 152 -6 0 -16 -5 -23 -12z"/>
<path d="M6443 2645 c-110 -31 -173 -98 -173 -184 0 -52 12 -81 52 -127 43 -49 134 -89 236 -104 81 -12 82 -13 69 -34 -22 -33 -30 -82 -17 -105 10 -20 8 -21 -47 -21 -139 -1 -231 -100 -220 -238 4 -50 12 -74 38 -113 71 -103 142 -129 379 -136 96 -3 184 -4 195 -2 31 6 -69 59 -111 59 l-34 0 34 45 c41 53 57 117 45 181 -11 60 -37 99 -99 152 -41 36 -50 49 -50 76 0 29 10 41 79 99 91 76 121 127 121 203 -1 98 -74 191 -186 234 -75 30 -233 37 -311 15z m327 -70 c52 -31 75 -69 74 -123 -1 -59 -19 -87 -96 -147 l-61 -48 -84 11 c-142 19 -207 70 -207 162 0 72 43 123 130 156 57 21 200 14 244 -11z m-42 -579 c36 -34 37 -37 37 -103 -2 -176 -118 -305 -224 -247 -55 31 -76 66 -75 132 1 71 16 126 50 178 35 54 69 73 127 74 40 0 53 -5 85 -34z"/>
<path d="M8370 2060 l0 -490 44 0 44 0 7 45 6 46 35 -30 c63 -56 92 -66 184 -66 129 1 192 41 247 160 26 56 28 69 27 180 0 101 -4 129 -23 178 -46 117 -131 177 -251 177 -71 0 -149 -29 -184 -69 -11 -11 -22 -21 -25 -21 -3 0 -4 85 -3 190 l4 190 -56 0 -56 0 0 -490z m421 61 c58 -60 74 -118 67 -243 -5 -109 -33 -168 -92 -203 -88 -51 -210 -24 -257 58 -22 39 -24 53 -24 172 0 114 3 135 22 175 32 65 78 89 167 90 l70 0 47 -49z"/>
<path d="M9953 2543 c-7 -2 -13 -22 -13 -43 l0 -38 59 1 c79 0 122 -26 154 -96 55 -120 63 -77 -84 -443 -72 -181 -133 -335 -136 -341 -4 -10 10 -13 50 -13 l56 0 19 53 c11 28 49 129 85 222 36 94 73 196 83 228 10 31 20 57 23 57 3 0 23 -48 43 -108 20 -59 64 -185 98 -279 l62 -173 54 0 c30 0 54 2 54 4 0 4 -194 521 -263 702 -67 174 -104 227 -179 258 -35 15 -138 21 -165 9z"/>
<path d="M4093 2270 c-173 -45 -290 -151 -348 -315 -90 -257 23 -533 265 -650 101 -48 161 -58 314 -53 142 5 227 27 323 83 l47 28 -65 58 c-35 32 -72 58 -81 59 -21 0 -22 -4 -6 -30 11 -17 8 -24 -17 -50 -16 -17 -59 -45 -95 -63 -61 -30 -71 -32 -175 -32 -98 0 -116 3 -166 26 -70 33 -150 112 -183 182 -108 229 -1 548 223 661 108 55 255 72 359 41 l52 -16 0 -115 0 -116 -102 6 -103 7 50 -30 c50 -31 50 -31 204 -31 l155 0 -27 28 c-26 27 -27 31 -27 149 l0 121 -112 26 c-215 50 -364 58 -485 26z"/>
<path d="M9451 2249 c-108 -43 -153 -171 -98 -279 18 -37 34 -51 84 -76 63 -33 92 -38 246 -49 l87 -7 0 -39 c0 -56 -27 -117 -61 -134 -43 -23 -138 -19 -212 8 l-65 24 -13 -39 c-7 -21 -10 -40 -7 -43 15 -15 126 -46 186 -51 137 -13 228 33 257 128 12 40 15 107 15 305 l0 253 -39 0 c-39 0 -40 0 -47 -45 -3 -25 -9 -45 -13 -45 -4 0 -18 12 -32 26 -42 47 -115 74 -194 73 -38 0 -81 -5 -94 -10z m159 -79 c60 -11 113 -47 135 -91 9 -16 19 -59 22 -96 l6 -66 -104 5 c-169 9 -229 46 -229 139 0 58 28 97 80 109 19 4 36 8 36 9 1 1 25 -4 54 -9z"/>
<path d="M5033 2226 c-95 -30 -178 -109 -214 -205 -27 -73 -23 -185 9 -252 53 -109 153 -181 277 -198 263 -37 457 189 374 436 -18 56 -33 79 -84 130 -52 51 -72 64 -129 82 -77 24 -169 26 -233 7z m229 -52 c67 -35 106 -136 94 -248 -24 -233 -155 -362 -303 -301 -100 42 -136 138 -109 292 38 220 176 331 318 257z"/>
<path d="M5796 2224 c-98 -31 -159 -85 -203 -179 -39 -86 -40 -196 -1 -275 53 -108 134 -170 257 -195 223 -47 411 103 411 329 0 64 -5 82 -35 144 -41 81 -85 124 -165 160 -70 32 -190 40 -264 16z m202 -39 c85 -36 121 -101 122 -215 0 -147 -51 -271 -136 -328 -44 -31 -54 -34 -106 -30 -69 5 -128 42 -154 96 -59 120 3 379 108 454 53 37 111 45 166 23z"/>
<path d="M7525 2227 c-91 -37 -141 -85 -180 -169 -52 -115 -51 -231 3 -332 85 -156 322 -210 448 -102 35 30 84 110 73 120 -2 1 -74 31 -159 66 -98 40 -175 66 -210 70 -50 4 -55 7 -58 30 -1 14 12 54 30 90 77 150 225 205 378 138 l45 -19 -33 34 c-57 58 -115 81 -217 84 -55 2 -102 -2 -120 -10z m58 -411 c88 -38 139 -66 142 -77 14 -42 -50 -113 -110 -125 -66 -12 -148 40 -174 109 -13 33 -15 160 -3 155 4 -1 70 -30 145 -62z"/>
<path d="M7029 2191 c20 -28 21 -40 21 -475 l0 -446 -57 0 -58 -1 55 -29 c50 -27 64 -29 158 -30 l104 0 -31 26 -31 26 0 448 c0 348 3 451 13 457 6 4 35 10 62 13 l50 5 -32 18 c-25 13 -57 17 -153 17 l-121 0 20 -29z"/>
<path d="M2261 1582 l-543 -537 4 -88 3 -87 101 58 c55 33 125 73 155 89 87 49 282 161 304 175 23 14 300 174 393 227 66 37 87 50 111 65 10 6 -17 38 -105 127 l-119 119 324 0 c310 0 325 1 357 21 43 26 55 47 42 73 -8 18 -127 91 -428 263 l-57 32 -542 -537z"/>
<path d="M7940 1625 c0 -25 -4 -45 -10 -45 -5 0 -10 -4 -10 -10 0 -5 16 -10 35 -10 19 0 35 5 35 10 0 6 -7 10 -15 10 -11 0 -15 12 -15 45 0 25 -4 45 -10 45 -5 0 -10 -20 -10 -45z"/>
<path d="M8000 1621 c0 -49 13 -74 23 -47 8 19 -4 96 -14 96 -5 0 -9 -22 -9 -49z"/>
<path d="M8036 1647 c-8 -32 -7 -44 3 -28 7 11 13 6 25 -22 8 -20 17 -37 20 -37 4 0 5 26 5 58 -2 53 -2 55 -8 17 l-7 -40 -8 32 c-10 41 -22 49 -30 20z"/>
<path d="M5025 973 c-60 -16 -95 -67 -95 -138 0 -96 53 -155 138 -155 62 0 100 23 124 77 52 119 -46 246 -167 216z m82 -58 c27 -19 44 -76 36 -116 -6 -31 -54 -79 -80 -79 -8 0 -28 13 -44 29 -24 24 -29 38 -29 76 0 38 5 52 29 76 33 33 56 36 88 14z"/>
<path d="M6821 963 c-48 -24 -71 -67 -71 -134 0 -63 27 -114 70 -136 36 -18 107 -16 141 4 32 19 69 85 69 124 0 35 -40 109 -71 132 -37 27 -97 31 -138 10z m114 -58 c20 -19 25 -34 25 -75 0 -44 -5 -56 -29 -81 -16 -16 -37 -29 -46 -29 -9 0 -30 13 -46 29 -24 24 -29 38 -29 76 0 38 5 52 29 76 36 35 64 37 96 4z"/>
<path d="M3720 961 c0 -5 22 -69 49 -143 l49 -133 39 -3 40 -3 46 133 c26 73 47 139 47 146 0 7 -14 12 -34 12 -32 0 -35 -2 -41 -40 l-7 -40 -54 0 c-50 0 -54 2 -60 28 -3 15 -7 33 -10 40 -4 14 -64 17 -64 3z m164 -143 c-4 -13 -12 -39 -19 -58 l-12 -34 -16 49 c-22 65 -22 65 19 65 32 0 35 -2 28 -22z"/>
<path d="M4043 825 l0 -145 31 0 c28 0 36 9 95 103 l63 102 -5 -102 -6 -103 29 0 30 0 0 145 0 145 -27 0 c-29 0 -42 -16 -131 -160 l-34 -55 5 108 6 107 -28 0 -28 0 0 -145z"/>
<path d="M4360 825 l0 -145 63 1 c89 0 127 16 154 64 28 49 29 87 3 142 -27 60 -68 83 -152 83 l-68 0 0 -145z m149 81 c16 -10 33 -75 27 -100 -12 -47 -45 -76 -87 -76 l-39 0 0 84 c0 99 12 120 60 106 16 -5 34 -11 39 -14z"/>
<path d="M4660 825 l0 -145 70 0 c79 0 124 17 133 51 7 28 -7 63 -33 82 -19 13 -19 15 -4 28 14 12 64 109 64 124 0 3 -15 5 -33 5 -30 0 -34 -4 -50 -50 -13 -36 -26 -54 -43 -60 -41 -16 -44 -13 -44 50 l0 60 -30 0 -30 0 0 -145z m138 -27 c30 -25 -3 -78 -50 -78 -27 0 -28 2 -28 51 l0 51 33 -7 c17 -4 38 -12 45 -17z"/>
<path d="M5410 825 l0 -145 68 0 c83 0 130 21 154 70 35 70 13 154 -51 197 -27 18 -48 23 -102 23 l-69 0 0 -145z m147 85 c1 0 9 -13 18 -30 19 -37 19 -73 0 -109 -16 -32 -33 -41 -76 -41 l-29 0 0 94 c0 103 4 109 55 94 16 -4 31 -8 32 -8z"/>
<path d="M5800 961 c0 -5 22 -69 49 -143 l49 -133 40 -3 40 -3 46 138 c25 76 46 141 46 146 0 4 -15 7 -33 7 -30 0 -34 -4 -43 -37 -9 -37 -10 -38 -61 -41 l-52 -3 -12 40 c-11 35 -16 41 -41 41 -15 0 -28 -4 -28 -9z m153 -173 c-17 -60 -21 -66 -27 -47 -2 8 -9 29 -15 48 -16 49 -15 51 23 51 l35 0 -16 -52z"/>
<path d="M6120 825 l0 -145 73 0 c54 0 80 5 105 20 76 46 14 160 -87 160 -31 0 -31 0 -31 55 0 54 0 55 -30 55 l-30 0 0 -145z m131 -15 c12 -7 19 -21 19 -40 0 -32 -23 -50 -64 -50 -24 0 -26 3 -26 50 0 47 2 50 26 50 14 0 34 -5 45 -10z"/>
<path d="M6385 825 l0 -145 76 0 c62 0 81 4 103 21 28 22 35 73 15 111 -13 24 -67 48 -108 48 l-30 0 6 55 6 55 -34 0 -34 0 0 -145z m135 -25 c25 -25 25 -35 -1 -61 -13 -13 -30 -19 -47 -17 -25 3 -27 7 -30 51 -3 46 -3 47 27 47 18 0 40 -9 51 -20z"/>
<path d="M7090 825 l0 -145 29 0 c25 0 36 11 90 97 l61 97 0 -97 c0 -97 0 -97 25 -97 l25 0 0 145 0 145 -24 0 c-19 0 -37 -20 -90 -101 l-66 -102 0 102 0 101 -25 0 -25 0 0 -145z"/>
<path d="M11983 237 c-27 -98 -118 -189 -222 -221 -45 -14 -42 -15 97 -15 l142 -1 0 140 c0 77 -1 140 -3 140 -2 0 -8 -19 -14 -43z"/>
<path d="M0 138 l0 -138 138 0 137 1 -53 18 c-92 32 -171 111 -203 203 l-18 53 -1 -137z"/>
</g>
<g id="layer117" fill="#f7b077" stroke="none">
<path d="M2367 1687 l-438 -432 1 -133 0 -133 49 28 c27 15 100 57 163 92 62 35 124 71 138 80 25 15 277 161 398 230 66 37 87 50 111 65 10 6 -17 38 -105 127 l-119 119 324 0 c310 0 325 1 357 21 43 26 55 47 42 73 -8 18 -126 91 -428 263 l-55 31 -438 -431z"/>
</g>
<g id="layer118" fill="#b1d5a3" stroke="none">
<path d="M0 3293 l1 -138 18 53 c32 92 111 171 203 203 l53 18 -137 1 -138 0 0 -137z"/>
<path d="M11755 3416 c105 -33 179 -101 221 -204 l24 -57 0 138 0 137 -142 -1 c-130 0 -139 -1 -103 -13z"/>
<path d="M6440 2645 c-127 -36 -199 -147 -161 -248 31 -82 138 -145 279 -167 81 -12 82 -13 69 -34 -22 -33 -30 -82 -17 -105 10 -20 8 -21 -44 -21 -161 0 -261 -137 -214 -294 19 -61 99 -138 173 -166 52 -19 85 -23 253 -28 105 -2 192 -2 192 1 0 14 -96 57 -127 57 l-35 0 31 39 c40 51 51 81 51 147 0 75 -17 109 -89 179 -87 84 -85 101 18 188 91 76 121 127 121 203 0 27 -9 67 -19 89 -24 54 -100 119 -170 146 -73 29 -231 36 -311 14z m330 -70 c52 -31 75 -69 74 -123 -1 -59 -19 -87 -95 -147 l-59 -47 -76 7 c-86 8 -166 44 -198 87 -27 38 -27 118 0 155 52 69 118 94 235 90 62 -2 94 -8 119 -22z m-42 -579 c37 -35 37 -35 36 -113 -2 -121 -57 -221 -134 -244 -47 -14 -79 -7 -119 27 -61 51 -62 168 -4 277 33 60 74 87 136 87 40 0 53 -5 85 -34z"/>
<path d="M8380 2060 l0 -490 39 0 c38 0 39 0 46 45 l6 46 35 -30 c50 -45 86 -61 152 -67 76 -8 159 15 209 59 20 18 50 60 67 97 28 61 30 73 30 185 0 100 -4 129 -22 176 -49 125 -140 185 -267 177 -74 -5 -135 -29 -169 -67 -11 -12 -22 -21 -26 -21 -3 0 -4 86 -2 190 l5 190 -52 0 -51 0 0 -490z m392 83 c21 -15 47 -45 60 -72 20 -40 23 -61 23 -161 0 -100 -3 -121 -23 -162 -32 -65 -71 -91 -144 -96 -87 -6 -141 17 -176 76 -25 43 -27 57 -30 167 -2 106 0 126 20 174 16 39 33 61 57 75 71 41 151 41 213 -1z"/>
<path d="M9953 2543 c-7 -2 -13 -22 -13 -44 l0 -39 43 6 c32 5 56 1 89 -14 50 -22 74 -55 108 -144 l21 -56 -132 -329 c-72 -180 -133 -334 -136 -340 -4 -10 10 -13 49 -13 l55 0 87 225 c47 124 94 253 103 285 17 56 33 78 33 45 0 -8 43 -136 96 -285 l97 -270 53 0 c30 0 54 2 54 4 0 11 -300 798 -318 832 -52 102 -116 144 -217 143 -33 0 -66 -3 -72 -6z"/>
<path d="M4133 2279 c-335 -56 -515 -414 -366 -731 40 -86 134 -188 210 -226 118 -61 148 -67 318 -67 147 1 166 3 232 27 40 14 93 38 119 53 l46 27 -63 59 c-70 63 -107 78 -87 34 10 -22 8 -29 -18 -56 -16 -16 -58 -44 -94 -62 -61 -30 -71 -32 -175 -32 -98 0 -116 3 -166 26 -213 100 -289 382 -168 625 66 134 186 230 328 264 63 15 223 9 264 -10 l27 -13 0 -115 0 -115 -102 7 -103 6 52 -30 c52 -30 54 -30 205 -30 l152 0 -27 28 c-26 27 -27 31 -27 149 l0 120 -112 27 c-183 43 -328 54 -445 35z"/>
<path d="M9436 2240 c-54 -27 -67 -40 -87 -85 -37 -79 -16 -191 42 -234 62 -46 119 -62 249 -72 69 -4 126 -8 128 -9 1 0 2 -18 2 -40 0 -57 -27 -118 -61 -135 -43 -23 -138 -19 -212 8 l-64 24 -12 -32 c-6 -17 -11 -36 -11 -42 0 -6 30 -22 68 -34 87 -30 228 -32 282 -5 101 53 110 85 110 413 l0 253 -39 0 c-38 0 -39 -1 -45 -45 -4 -25 -11 -45 -15 -45 -4 0 -18 12 -32 26 -64 70 -216 97 -303 54z m220 -81 c32 -10 73 -48 93 -87 7 -12 14 -51 18 -87 l6 -65 -79 0 c-94 0 -190 23 -221 52 -34 32 -47 89 -30 130 8 18 21 39 31 47 35 29 106 33 182 10z"/>
<path d="M9100 1770 l0 -480 55 0 55 0 0 480 0 480 -55 0 -55 0 0 -480z"/>
<path d="M5033 2226 c-96 -31 -178 -110 -214 -205 -17 -44 -20 -71 -17 -132 7 -129 70 -224 186 -281 62 -31 73 -33 172 -33 96 0 110 2 163 29 111 57 171 158 172 291 0 67 -4 90 -28 141 -57 123 -166 193 -310 200 -52 3 -97 -1 -124 -10z m229 -52 c85 -44 118 -176 82 -323 -49 -197 -165 -283 -300 -222 -86 39 -123 134 -105 267 33 231 176 354 323 278z"/>
<path d="M5803 2226 c-103 -34 -167 -89 -210 -181 -36 -80 -39 -195 -6 -267 30 -66 105 -143 172 -175 51 -25 66 -28 166 -28 103 0 113 2 164 30 235 130 227 477 -15 596 -55 27 -79 33 -147 36 -51 2 -98 -2 -124 -11z m189 -38 c45 -13 98 -64 114 -110 18 -47 17 -174 -1 -243 -48 -184 -171 -268 -300 -205 -69 33 -97 82 -103 178 -10 178 78 356 191 382 47 11 56 11 99 -2z"/>
<path d="M7540 2231 c-93 -30 -155 -86 -197 -176 -25 -54 -28 -71 -28 -165 0 -99 2 -108 31 -160 56 -99 161 -160 277 -160 78 0 129 16 175 56 34 28 82 109 71 117 -2 2 -74 32 -159 67 -97 40 -176 66 -210 69 -48 5 -55 9 -58 30 -6 37 54 145 104 190 48 42 117 71 169 71 29 0 108 -18 150 -35 39 -16 -23 41 -78 71 -44 23 -66 28 -137 31 -47 1 -96 -1 -110 -6z m36 -412 c76 -33 143 -64 148 -69 13 -13 -1 -55 -29 -89 -31 -36 -84 -55 -131 -46 -42 7 -102 58 -120 102 -12 27 -20 163 -11 163 2 0 66 -27 143 -61z"/>
<path d="M7029 2191 c20 -28 21 -40 21 -480 l0 -451 -47 0 -48 -1 45 -24 c39 -21 59 -24 148 -25 l102 0 -32 29 -33 29 0 441 c0 343 3 443 13 453 7 7 36 15 65 18 l52 5 -32 18 c-25 13 -57 17 -153 17 l-121 0 20 -29z"/>
<path d="M2204 1528 l-274 -272 0 -133 0 -134 49 28 c27 15 100 57 163 92 62 35 124 71 138 80 25 15 277 161 398 230 66 37 87 50 111 65 10 6 -26 47 -140 162 -85 85 -157 154 -162 154 -4 0 -132 -122 -283 -272z"/>
<path d="M8002 1622 c-2 -61 14 -67 33 -13 6 18 14 29 18 25 4 -4 7 0 7 9 0 36 -18 24 -31 -21 l-14 -47 -6 50 -6 50 -1 -53z"/>
<path d="M8081 1630 c-2 -35 -4 -41 -11 -25 -6 13 -9 15 -9 5 -1 -19 16 -46 24 -38 3 3 4 28 2 54 l-3 49 -3 -45z"/>
<path d="M5001 959 c-49 -25 -71 -64 -71 -129 0 -91 54 -150 138 -150 85 0 137 56 135 148 -1 114 -104 180 -202 131z m101 -40 c29 -15 50 -73 42 -115 -6 -35 -53 -84 -81 -84 -8 0 -28 13 -44 29 -24 24 -29 38 -29 76 0 38 5 52 29 76 32 31 50 35 83 18z"/>
<path d="M6825 961 c-52 -24 -75 -65 -75 -133 0 -61 34 -122 76 -139 39 -14 103 -11 135 8 32 19 69 85 69 124 0 35 -40 109 -70 130 -40 28 -89 32 -135 10z m102 -46 c24 -17 45 -76 36 -103 -17 -55 -28 -72 -53 -82 -52 -22 -100 25 -100 98 0 35 6 49 29 73 33 33 56 36 88 14z"/>
<path d="M3720 963 c0 -5 23 -70 51 -145 l52 -138 37 0 37 0 47 134 c25 73 46 139 46 145 0 6 -15 11 -34 11 -32 0 -35 -2 -41 -40 l-7 -40 -54 0 c-50 0 -54 2 -60 28 -10 49 -13 52 -44 52 -16 0 -30 -3 -30 -7z m170 -125 c0 -2 -9 -30 -19 -62 l-18 -60 -17 56 c-9 31 -16 59 -16 62 0 3 16 6 35 6 19 0 35 -1 35 -2z"/>
<path d="M4045 825 l0 -145 33 0 c17 0 32 3 32 8 0 4 28 50 61 102 l61 95 -5 -102 -5 -103 27 0 28 0 0 145 0 145 -26 -1 c-27 0 -46 -23 -129 -159 l-33 -55 3 108 3 107 -25 0 -25 0 0 -145z"/>
<path d="M4360 825 l0 -145 63 1 c87 1 127 18 155 65 27 47 24 107 -10 161 -27 44 -71 63 -148 63 l-60 0 0 -145z m113 94 c98 -27 79 -183 -23 -191 l-35 -3 -3 70 c-3 73 4 135 16 135 4 0 24 -5 45 -11z"/>
<path d="M4660 825 l0 -145 70 0 c97 0 130 17 130 70 0 29 -6 43 -25 58 -23 18 -23 21 -8 33 13 12 63 109 63 124 0 3 -16 5 -35 5 -25 0 -35 -4 -35 -15 0 -9 -9 -33 -20 -54 -16 -33 -41 -50 -72 -51 -5 0 -8 27 -8 60 l0 60 -30 0 -30 0 0 -145z m138 -27 c30 -25 -3 -78 -50 -78 -27 0 -28 2 -28 51 l0 51 33 -7 c17 -4 38 -12 45 -17z"/>
<path d="M5410 825 l0 -145 68 0 c83 0 130 21 154 70 24 46 23 92 -2 141 -30 58 -71 79 -152 79 l-68 0 0 -145z m153 76 c26 -26 33 -91 13 -129 -16 -31 -72 -57 -99 -46 -16 6 -10 186 6 196 17 11 59 0 80 -21z"/>
<path d="M5800 961 c0 -5 22 -69 49 -143 l49 -133 40 -3 40 -3 46 138 c25 76 46 141 46 146 0 4 -15 7 -33 7 -30 0 -34 -4 -43 -37 -9 -37 -10 -38 -61 -41 l-52 -3 -12 40 c-11 35 -16 41 -41 41 -15 0 -28 -4 -28 -9z m164 -143 c-25 -82 -32 -93 -39 -73 -4 11 -13 37 -21 58 l-14 37 41 0 c37 0 40 -2 33 -22z"/>
<path d="M6120 825 l0 -145 73 0 c97 0 137 23 137 78 0 56 -57 102 -126 102 -22 0 -24 3 -24 55 0 54 0 55 -30 55 l-30 0 0 -145z m131 -15 c12 -7 19 -21 19 -40 0 -32 -23 -50 -64 -50 -24 0 -26 3 -26 50 0 47 2 50 26 50 14 0 34 -5 45 -10z"/>
<path d="M6390 825 l0 -145 74 0 c59 0 78 4 100 21 28 22 35 73 15 111 -13 24 -67 48 -108 48 l-30 0 6 55 6 55 -32 0 -31 0 0 -145z m130 -25 c11 -11 20 -26 20 -34 0 -21 -40 -46 -72 -46 -27 0 -28 2 -28 50 0 49 1 50 30 50 17 0 39 -9 50 -20z"/>
<path d="M7090 825 l0 -145 29 0 c26 0 36 11 91 100 35 55 64 100 64 100 1 0 -1 -45 -2 -100 l-4 -100 26 0 26 0 0 145 0 145 -24 0 c-19 0 -37 -20 -90 -101 l-66 -102 0 102 0 101 -25 0 -25 0 0 -145z"/>
<path d="M11990 260 c0 -27 -42 -108 -76 -149 -29 -34 -95 -77 -152 -97 -34 -12 -25 -13 101 -14 l137 0 0 140 c0 77 -2 140 -5 140 -3 0 -5 -9 -5 -20z"/>
<path d="M1 138 l-1 -138 138 1 c125 0 134 1 97 13 -63 20 -97 41 -141 88 -46 47 -61 73 -80 133 -12 37 -13 28 -13 -97z"/>
</g>
<g id="layer119" fill="#fbc473" stroke="none">
<path d="M2715 2030 l-90 -90 238 0 c130 0 237 2 237 4 0 2 -51 33 -112 69 -62 35 -129 74 -148 86 l-36 21 -89 -90z"/>
</g>
<g id="layer120" fill="#bfdaa0" stroke="none">
<path d="M1 3293 c0 -126 1 -135 13 -98 20 63 41 97 88 141 47 46 73 61 133 80 37 12 28 13 -97 13 l-138 1 1 -137z"/>
<path d="M11784 3405 c33 -13 75 -37 95 -53 38 -31 96 -118 110 -167 7 -21 9 11 10 108 l1 137 -137 0 -138 0 59 -25z"/>
<path d="M6463 2650 c-152 -32 -232 -155 -173 -269 37 -73 135 -132 240 -145 114 -14 112 -13 94 -48 -16 -32 -21 -88 -9 -107 4 -7 -11 -11 -44 -11 -57 0 -124 -23 -160 -54 -35 -31 -71 -114 -71 -166 0 -92 68 -187 165 -232 46 -21 66 -23 250 -26 l200 -3 -30 21 c-20 13 -46 20 -77 20 -27 0 -48 2 -48 4 0 2 13 18 29 35 43 45 61 92 61 155 0 76 -17 110 -89 181 -85 83 -84 103 9 181 105 87 125 121 125 210 0 64 -3 77 -30 115 -41 58 -104 105 -168 125 -61 19 -214 27 -274 14z m297 -72 c61 -32 85 -68 84 -128 -1 -59 -18 -87 -92 -146 l-57 -46 -75 6 c-214 17 -305 180 -159 288 70 53 221 65 299 26z m-49 -565 c124 -74 30 -383 -116 -383 -72 0 -135 71 -135 151 0 48 34 153 60 186 49 63 130 82 191 46z"/>
<path d="M8380 2060 l0 -490 39 0 39 0 7 49 7 49 38 -38 c72 -72 204 -89 307 -39 52 25 88 67 121 139 22 49 25 69 25 175 0 99 -3 129 -21 175 -30 76 -73 124 -139 156 -49 23 -66 26 -127 22 -75 -5 -136 -29 -170 -67 -11 -12 -22 -21 -26 -21 -3 0 -4 86 -2 190 l5 190 -52 0 -51 0 0 -490z m392 83 c21 -14 47 -46 60 -72 20 -40 23 -61 23 -161 0 -100 -3 -121 -23 -162 -33 -67 -71 -91 -150 -96 -104 -7 -164 32 -192 125 -8 25 -11 82 -8 154 3 93 8 122 26 156 46 89 177 116 264 56z"/>
<path d="M9958 2544 c-13 -4 -18 -16 -18 -44 l0 -38 40 5 c26 4 56 -1 86 -12 51 -19 81 -57 114 -147 l21 -57 -132 -328 c-72 -180 -134 -334 -136 -340 -4 -10 10 -13 50 -13 l54 0 96 253 c52 138 98 267 102 285 9 43 19 40 34 -10 7 -24 51 -152 98 -285 l86 -243 53 0 c30 0 54 2 54 4 0 6 -270 718 -297 785 -32 78 -77 138 -121 164 -33 20 -146 32 -184 21z"/>
<path d="M4124 2275 c-245 -44 -408 -244 -407 -500 0 -223 123 -400 344 -492 60 -25 74 -27 224 -27 143 -1 167 2 230 23 39 13 94 37 123 53 l53 30 -63 58 c-69 64 -106 79 -86 35 10 -22 8 -29 -18 -56 -16 -16 -57 -44 -91 -61 -158 -78 -359 -41 -467 86 -56 65 -82 122 -98 214 -44 261 133 530 385 584 58 12 218 6 260 -11 l27 -11 0 -116 0 -117 -102 6 -103 6 52 -29 c52 -30 54 -30 205 -30 l152 0 -27 28 c-26 27 -27 31 -27 149 l0 120 -92 22 c-112 27 -284 51 -353 50 -27 0 -82 -7 -121 -14z"/>
<path d="M9425 2232 c-106 -57 -129 -207 -47 -296 49 -53 124 -78 242 -83 160 -6 154 -3 147 -72 -6 -68 -26 -104 -69 -122 -43 -18 -126 -13 -198 11 -34 12 -63 20 -65 18 -10 -12 -25 -49 -25 -61 0 -9 27 -23 73 -38 89 -29 211 -31 272 -5 105 45 115 82 115 413 l0 253 -39 0 c-38 0 -39 -1 -45 -45 -4 -25 -10 -45 -13 -45 -3 0 -21 14 -41 31 -56 50 -108 69 -187 69 -57 0 -79 -5 -120 -28z m243 -76 c62 -32 91 -82 99 -173 l6 -66 -111 5 c-122 6 -171 23 -206 71 -24 32 -27 93 -7 130 29 54 146 71 219 33z"/>
<path d="M9100 1770 l0 -480 50 0 50 0 0 480 0 480 -50 0 -50 0 0 -480z"/>
<path d="M5060 2231 c-97 -20 -191 -96 -233 -189 -33 -71 -31 -208 3 -277 58 -115 167 -185 302 -193 97 -6 159 9 223 53 167 115 189 353 46 508 -74 80 -224 124 -341 98z m178 -46 c89 -38 116 -88 116 -220 1 -109 -22 -192 -72 -268 -53 -80 -151 -108 -238 -68 -87 39 -125 135 -105 265 21 144 82 249 165 287 50 23 85 24 134 4z"/>
<path d="M5817 2229 c-145 -34 -249 -164 -251 -313 -1 -97 23 -163 85 -231 72 -78 139 -108 253 -113 75 -3 101 0 147 17 125 47 200 154 207 295 4 74 2 87 -26 146 -49 106 -120 167 -227 195 -65 16 -129 18 -188 4z m207 -54 c62 -30 89 -81 94 -182 3 -49 -1 -110 -8 -142 -17 -78 -66 -166 -114 -204 -36 -29 -47 -32 -106 -32 -84 0 -137 31 -170 100 -20 41 -22 57 -18 143 13 252 158 395 322 317z"/>
<path d="M7529 2227 c-91 -34 -145 -84 -186 -172 -25 -54 -28 -71 -28 -165 0 -119 15 -160 84 -229 59 -59 122 -85 216 -89 72 -3 86 0 135 25 35 18 64 42 82 68 52 78 57 72 -133 148 -133 54 -179 67 -212 65 -40 -3 -37 -5 97 -62 76 -32 140 -66 144 -74 7 -20 -26 -81 -59 -104 -68 -51 -175 -20 -217 62 -21 40 -23 55 -19 137 3 79 9 102 36 157 53 109 151 176 256 176 23 0 68 -9 101 -20 l59 -20 -35 30 c-66 57 -108 73 -200 77 -55 2 -98 -2 -121 -10z"/>
<path d="M7020 2213 c0 -5 7 -17 15 -27 13 -17 15 -90 15 -473 l0 -453 -47 -1 -48 -1 50 -23 c41 -20 67 -24 145 -24 l95 -1 -27 25 c-17 16 -29 39 -33 67 -3 24 -5 224 -3 445 2 309 6 405 16 415 7 7 36 15 65 18 l52 5 -32 18 c-25 13 -57 17 -148 17 -63 0 -115 -3 -115 -7z"/>
<path d="M2350 1671 l-130 -129 2 -190 3 -190 32 17 c29 15 78 43 173 98 19 11 80 46 135 78 55 32 116 67 135 77 36 20 65 36 89 52 10 6 -26 47 -140 162 -85 85 -157 154 -161 154 -3 0 -66 -58 -138 -129z"/>
<path d="M8002 1622 c-1 -38 2 -52 10 -50 6 2 13 11 16 19 3 12 2 12 -7 -1 -7 -10 -11 -2 -14 35 l-3 50 -2 -53z"/>
<path d="M8036 1644 c-4 -15 -5 -29 -1 -32 3 -3 5 2 5 12 0 9 5 14 10 11 6 -3 10 1 10 9 0 27 -18 27 -24 0z"/>
<path d="M5015 966 c-51 -23 -77 -60 -83 -115 -9 -102 46 -171 136 -171 82 0 136 56 136 141 0 106 -102 185 -189 145z m92 -51 c33 -23 48 -83 33 -129 -13 -40 -58 -71 -90 -61 -61 19 -80 119 -34 174 28 34 58 39 91 16z"/>
<path d="M6830 965 c-72 -31 -102 -130 -64 -210 23 -50 48 -67 105 -73 95 -9 149 42 149 140 0 113 -94 184 -190 143z m97 -50 c82 -58 18 -230 -69 -184 -37 20 -47 40 -48 95 0 42 5 56 26 78 30 29 59 33 91 11z"/>
<path d="M3720 963 c0 -5 23 -70 51 -145 l52 -138 37 0 38 0 46 138 c25 75 46 140 46 145 0 4 -15 7 -33 7 -31 0 -34 -3 -43 -42 l-9 -43 -50 0 c-50 0 -50 0 -65 43 -12 36 -18 42 -42 42 -15 0 -28 -3 -28 -7z m170 -120 c0 -5 -8 -34 -18 -66 l-19 -59 -20 61 c-11 34 -17 63 -15 66 8 8 72 6 72 -2z"/>
<path d="M4360 825 l0 -145 56 0 c122 0 178 44 178 140 0 95 -63 150 -173 150 l-61 0 0 -145z m130 90 c33 -17 55 -71 45 -114 -8 -39 -44 -70 -85 -73 l-35 -3 -3 89 c-2 49 -1 95 2 103 7 17 40 17 76 -2z"/>
<path d="M4660 825 l0 -145 64 0 c67 0 115 12 128 33 17 27 8 75 -17 95 -23 18 -23 21 -8 33 13 12 63 109 63 124 0 3 -13 5 -30 5 -26 0 -32 -6 -51 -50 -21 -50 -42 -70 -73 -70 -13 0 -16 12 -16 60 l0 60 -30 0 -30 0 0 -145z m137 -26 c19 -17 16 -57 -6 -69 -11 -5 -31 -10 -45 -10 -25 0 -26 3 -26 51 l0 52 32 -7 c17 -3 37 -11 45 -17z"/>
<path d="M5410 824 l0 -147 78 5 c88 5 122 22 146 73 22 45 20 83 -6 135 -30 58 -72 80 -155 80 l-63 0 0 -146z m153 78 c26 -27 33 -91 13 -130 -11 -22 -28 -35 -56 -43 -25 -8 -44 -9 -48 -3 -5 5 -6 53 -4 108 l4 98 36 -6 c20 -3 44 -14 55 -24z"/>
<path d="M5800 963 c0 -5 22 -69 49 -143 l49 -135 39 -3 39 -3 47 138 c26 76 47 141 47 146 0 4 -15 7 -34 7 -31 0 -34 -3 -42 -42 l-9 -43 -51 -3 -51 -3 -13 46 c-11 40 -16 45 -41 45 -16 0 -29 -3 -29 -7z m170 -120 c0 -5 -9 -35 -19 -67 l-18 -59 -18 54 c-10 30 -20 60 -23 67 -3 8 8 12 37 12 23 0 41 -3 41 -7z"/>
<path d="M6120 825 l0 -145 68 0 c94 0 136 22 140 73 2 27 -2 45 -15 59 -22 25 -73 48 -108 48 -24 0 -25 3 -25 55 0 54 0 55 -30 55 l-30 0 0 -145z m131 -15 c12 -7 19 -21 19 -40 0 -32 -23 -50 -64 -50 -24 0 -26 3 -26 50 0 47 2 50 26 50 14 0 34 -5 45 -10z"/>
<path d="M6390 825 l0 -145 71 0 c91 0 129 23 129 76 0 20 -4 43 -10 53 -11 22 -79 51 -117 51 -25 0 -26 1 -19 55 l6 55 -30 0 -30 0 0 -145z m128 -21 c43 -30 12 -84 -50 -84 -27 0 -28 2 -28 50 0 48 1 50 28 50 15 0 38 -7 50 -16z"/>
<path d="M7090 825 l0 -145 28 0 c25 0 36 12 92 100 35 55 64 100 65 100 0 0 -1 -45 -3 -100 l-4 -100 26 0 26 0 0 145 0 145 -24 0 c-23 0 -33 -13 -126 -161 l-35 -56 3 108 4 109 -26 0 -26 0 0 -145z"/>
<path d="M11990 261 c0 -30 -39 -109 -73 -148 -37 -43 -88 -76 -148 -97 -44 -15 -43 -15 94 -16 l137 0 0 140 c0 77 -2 140 -5 140 -3 0 -5 -8 -5 -19z"/>
<path d="M1 138 l-1 -138 133 1 c77 0 122 4 107 8 -108 33 -191 116 -226 226 -12 37 -13 28 -13 -97z"/>
</g>
<g id="layer121" fill="#c8de9f" stroke="none">
<path d="M1 3293 c0 -126 1 -135 13 -98 36 112 109 185 221 221 37 12 28 13 -97 13 l-138 1 1 -137z"/>
<path d="M11750 3421 c113 -35 195 -115 236 -229 12 -34 13 -25 14 101 l0 137 -137 -1 c-80 0 -128 -4 -113 -8z"/>
<path d="M6463 2650 c-151 -30 -232 -155 -173 -269 44 -87 124 -127 313 -156 l37 -6 -16 -31 c-16 -31 -21 -88 -9 -107 4 -7 -11 -11 -44 -11 -57 0 -124 -23 -160 -54 -35 -31 -71 -114 -71 -166 0 -92 68 -187 165 -232 46 -21 66 -23 250 -26 l200 -3 -30 21 c-20 13 -46 20 -77 20 -27 0 -48 5 -48 10 0 6 4 10 10 10 22 0 72 92 77 144 10 94 -1 122 -78 201 -95 98 -94 114 4 195 87 72 118 115 125 175 22 196 -212 336 -475 285z m297 -72 c61 -32 85 -68 84 -128 -1 -59 -18 -87 -92 -146 l-57 -46 -75 6 c-216 17 -304 178 -158 289 44 34 88 45 178 46 60 1 85 -4 120 -21z m-49 -565 c98 -58 67 -281 -50 -360 -89 -60 -200 11 -201 127 0 85 56 206 110 236 35 19 106 17 141 -3z"/>
<path d="M8380 2060 l0 -490 39 0 39 0 7 50 7 50 33 -35 c57 -61 151 -86 249 -65 81 17 133 60 176 145 33 68 34 73 34 190 -1 135 -18 199 -74 267 -42 51 -124 88 -194 88 -66 0 -154 -31 -186 -65 -13 -14 -27 -25 -30 -25 -4 0 -5 86 -2 190 l5 190 -52 0 -51 0 0 -490z m392 83 c47 -32 76 -92 86 -174 15 -130 -17 -246 -81 -291 -43 -30 -143 -37 -197 -13 -79 36 -104 103 -98 266 6 160 36 214 135 239 54 13 112 3 155 -27z"/>
<path d="M9958 2544 c-13 -4 -18 -16 -18 -44 l0 -38 40 5 c26 4 56 -1 86 -12 51 -19 81 -57 114 -148 l22 -58 -126 -312 c-69 -172 -130 -324 -135 -339 l-11 -28 54 0 53 0 96 253 c52 138 98 267 102 285 9 43 19 40 34 -10 7 -24 51 -152 99 -285 l86 -243 53 0 c29 0 53 1 53 3 0 1 -48 128 -106 282 -58 154 -126 335 -151 402 -82 223 -136 283 -260 289 -37 1 -76 1 -85 -2z"/>
<path d="M4124 2275 c-339 -61 -508 -428 -346 -750 31 -63 141 -172 209 -208 182 -97 479 -87 665 23 l37 21 -62 59 c-67 64 -106 80 -85 35 10 -22 8 -29 -18 -56 -16 -16 -57 -44 -91 -61 -158 -78 -359 -41 -467 86 -56 65 -82 122 -98 214 -44 260 133 529 383 583 60 13 221 7 262 -9 l27 -12 0 -116 0 -117 -102 6 -103 6 54 -29 c53 -29 57 -30 202 -30 l148 0 -24 25 c-24 23 -25 30 -25 148 l0 124 -92 22 c-112 27 -284 51 -353 50 -27 0 -82 -7 -121 -14z"/>
<path d="M9425 2232 c-114 -62 -130 -223 -32 -309 48 -42 121 -64 237 -69 142 -7 140 -7 139 -57 -1 -104 -47 -151 -148 -150 -31 1 -85 11 -120 22 -35 12 -64 21 -66 19 -10 -12 -25 -49 -25 -61 0 -9 27 -23 72 -38 141 -45 295 -24 345 47 37 52 43 100 43 362 l0 252 -39 0 -39 0 -7 -50 -7 -51 -40 36 c-88 80 -217 100 -313 47z m245 -77 c62 -32 100 -105 100 -194 l0 -44 -109 5 c-121 6 -170 23 -205 71 -24 32 -27 93 -7 130 29 54 146 71 221 32z"/>
<path d="M5041 2225 c-69 -19 -109 -45 -156 -96 -61 -68 -80 -120 -80 -224 0 -76 4 -98 25 -140 34 -67 99 -131 168 -163 50 -24 69 -27 162 -27 94 0 110 3 155 27 246 129 240 476 -10 599 -77 38 -181 47 -264 24z m204 -44 c51 -23 91 -70 106 -124 25 -93 -9 -269 -69 -360 -71 -107 -222 -116 -305 -18 -77 92 -46 334 59 450 63 70 133 87 209 52z"/>
<path d="M5817 2229 c-145 -34 -249 -164 -251 -313 -1 -97 23 -163 85 -231 72 -77 139 -108 254 -113 74 -3 100 0 146 17 125 47 200 154 207 295 4 74 2 87 -26 146 -49 106 -120 167 -227 195 -65 16 -129 18 -188 4z m207 -54 c21 -10 49 -35 62 -55 78 -117 29 -379 -88 -471 -38 -31 -48 -34 -108 -34 -84 0 -137 31 -170 100 -20 41 -22 57 -18 143 13 252 158 395 322 317z"/>
<path d="M7529 2227 c-137 -51 -209 -158 -217 -317 -5 -105 19 -178 78 -239 62 -64 130 -94 225 -98 73 -4 85 -2 135 24 35 18 65 43 82 68 50 74 52 72 -135 148 -129 52 -178 67 -208 65 -38 -3 -33 -6 96 -62 75 -33 139 -66 143 -74 3 -9 -3 -31 -14 -50 -41 -76 -117 -100 -194 -60 -172 88 -90 452 117 522 62 21 118 20 189 -4 l59 -20 -35 30 c-66 57 -108 73 -200 77 -55 2 -98 -2 -121 -10z"/>
<path d="M7034 2188 c14 -20 16 -82 16 -475 l0 -453 -47 -1 -48 0 54 -25 c44 -20 69 -24 145 -24 l91 0 -27 25 c-18 16 -29 39 -33 67 -3 24 -5 224 -3 446 3 458 -2 432 87 432 43 1 45 2 27 15 -15 11 -51 15 -148 15 l-129 0 15 -22z"/>
<path d="M2428 1745 l-58 -56 0 -219 c0 -121 2 -220 5 -220 6 0 216 118 230 130 6 4 39 23 73 41 62 33 82 44 111 63 10 6 -26 47 -140 162 -85 85 -156 154 -159 154 -3 0 -31 -25 -62 -55z"/>
<path d="M7941 1623 c0 -29 3 -53 7 -53 4 0 6 17 4 38 -6 64 -10 69 -11 15z"/>
<path d="M5015 966 c-51 -23 -77 -60 -83 -115 -9 -102 46 -171 136 -171 82 0 136 56 136 141 0 106 -102 185 -189 145z m100 -60 c66 -67 15 -207 -66 -181 -60 19 -79 120 -33 174 31 38 66 40 99 7z"/>
<path d="M6830 965 c-50 -22 -80 -70 -80 -129 0 -97 55 -156 145 -156 42 0 52 5 86 39 36 36 39 42 39 97 0 119 -92 191 -190 149z m105 -59 c70 -71 10 -211 -75 -176 -59 24 -72 125 -24 174 33 32 68 33 99 2z"/>
<path d="M3720 963 c0 -5 23 -70 51 -145 l52 -138 37 0 38 0 46 138 c25 75 46 141 46 145 0 5 -14 7 -32 5 -27 -3 -33 -8 -42 -43 -11 -39 -12 -40 -62 -43 l-51 -3 -13 46 c-11 40 -16 45 -41 45 -16 0 -29 -3 -29 -7z m170 -120 c0 -5 -9 -34 -19 -67 l-18 -58 -16 49 c-9 27 -19 57 -23 66 -5 14 0 17 35 17 23 0 41 -3 41 -7z"/>
<path d="M4045 825 l0 -145 33 0 c17 0 32 4 32 8 0 5 18 37 41 72 22 35 50 80 60 99 l20 36 -2 -105 c-3 -105 -3 -105 21 -108 l25 -3 0 146 0 145 -25 0 c-19 -1 -33 -13 -60 -56 -19 -31 -50 -79 -68 -107 l-33 -52 3 108 3 107 -25 0 -25 0 0 -145z"/>
<path d="M4360 825 l0 -145 63 0 c109 0 171 50 171 138 0 98 -62 152 -173 152 l-61 0 0 -145z m130 90 c33 -17 55 -71 45 -114 -9 -40 -47 -73 -87 -74 l-33 -2 -3 89 c-2 49 -1 95 2 103 7 17 40 17 76 -2z"/>
<path d="M4660 825 l0 -145 64 0 c67 0 115 12 128 33 17 26 8 75 -16 95 -25 19 -25 19 -5 38 11 11 28 44 39 73 l20 52 -31 -3 c-27 -3 -34 -9 -49 -47 -18 -47 -43 -71 -72 -71 -15 0 -18 9 -18 60 l0 60 -30 0 -30 0 0 -145z m137 -26 c19 -17 16 -57 -6 -69 -11 -5 -31 -10 -45 -10 -25 0 -26 3 -26 51 l0 52 32 -7 c17 -3 37 -11 45 -17z"/>
<path d="M5800 963 c0 -5 23 -70 51 -145 l52 -138 36 0 36 0 48 138 c26 75 47 140 47 145 0 4 -15 7 -34 7 -31 0 -34 -3 -42 -42 l-9 -43 -52 -3 -52 -3 -12 45 c-10 41 -14 46 -40 46 -16 0 -29 -3 -29 -7z m170 -120 c0 -5 -9 -35 -19 -67 l-18 -59 -18 54 c-10 30 -20 60 -23 67 -3 8 8 12 37 12 23 0 41 -3 41 -7z"/>
<path d="M6125 825 l0 -145 65 0 c42 0 77 6 100 18 30 15 35 22 38 58 3 36 -1 45 -28 67 -17 15 -49 29 -75 33 l-45 6 0 54 c0 52 -1 54 -27 54 l-28 0 0 -145z m126 -15 c12 -7 19 -21 19 -40 0 -32 -23 -50 -64 -50 -24 0 -26 3 -26 50 0 47 2 50 26 50 14 0 34 -5 45 -10z"/>
<path d="M6390 825 l0 -145 71 0 c91 0 129 23 129 76 0 20 -4 43 -10 53 -11 22 -79 51 -116 51 -25 0 -26 2 -22 55 3 54 3 55 -24 55 l-28 0 0 -145z m128 -21 c43 -30 12 -84 -50 -84 -27 0 -28 2 -28 50 0 48 1 50 28 50 15 0 38 -7 50 -16z"/>
<path d="M7090 825 l0 -145 28 0 c26 0 36 11 92 100 34 55 63 100 65 100 1 0 0 -45 -3 -100 l-5 -100 27 0 26 0 0 145 0 145 -24 0 c-23 0 -33 -13 -126 -161 l-35 -56 3 108 4 109 -26 0 -26 0 0 -145z"/>
<path d="M11990 258 c-1 -86 -114 -209 -225 -244 -37 -12 -28 -13 98 -13 l137 -1 0 140 c0 77 -2 140 -5 140 -3 0 -5 -10 -5 -22z"/>
<path d="M0 133 l0 -133 133 1 c77 0 122 4 107 8 -99 31 -176 101 -215 197 l-25 59 0 -132z"/>
</g>
<g id="layer122" fill="#d6e39c" stroke="none">
<path d="M2520 1549 c0 -121 3 -218 8 -216 4 2 42 25 84 51 43 25 80 46 84 46 3 0 28 14 56 32 l49 32 -138 138 c-76 76 -139 138 -140 138 -2 0 -3 -99 -3 -221z"/>
</g>
<g id="layer123" fill="#e2e79a" stroke="none">
<path d="M2670 1515 l0 -94 28 12 c15 7 44 23 65 36 l39 24 -58 58 c-32 33 -62 59 -66 59 -4 0 -8 -43 -8 -95z"/>
</g>
<g id="layer124" fill="#fbfbfb" stroke="none">
<path d="M0 3298 l0 -133 24 57 c38 93 91 146 184 184 l57 24 -132 0 -133 0 0 -132z"/>
<path d="M11750 3421 c110 -34 209 -130 238 -232 8 -27 10 -4 11 104 l1 137 -137 -1 c-80 0 -127 -4 -113 -8z"/>
<path d="M6463 2650 c-162 -33 -240 -173 -160 -291 47 -71 126 -106 300 -134 l37 -6 -16 -31 c-16 -31 -21 -88 -10 -106 3 -6 -21 -11 -58 -14 -90 -5 -151 -44 -188 -117 -35 -69 -36 -128 -4 -196 29 -62 76 -107 141 -137 46 -21 66 -23 250 -26 l200 -3 -30 21 c-20 13 -46 20 -77 20 -47 0 -61 11 -35 27 35 21 68 84 74 136 10 93 -1 120 -77 200 -97 102 -96 115 3 197 87 72 115 111 123 173 27 196 -209 339 -473 287z m297 -72 c82 -42 113 -126 70 -195 -10 -18 -45 -53 -77 -78 l-58 -47 -70 6 c-83 6 -129 20 -173 53 -85 64 -81 167 10 236 44 34 88 45 178 46 60 1 85 -4 120 -21z m-38 -572 c87 -57 49 -279 -61 -353 -40 -27 -80 -29 -128 -6 -76 36 -93 160 -38 277 29 62 50 83 101 101 41 14 86 7 126 -19z"/>
<path d="M8380 2060 l0 -490 39 0 38 0 7 50 7 49 38 -38 c49 -49 97 -66 187 -65 174 0 268 122 268 344 0 215 -88 334 -256 347 -74 6 -160 -21 -198 -62 -13 -14 -27 -25 -31 -25 -4 0 -4 86 -1 190 l5 190 -52 0 -51 0 0 -490z m345 109 c86 -24 137 -123 137 -264 -1 -124 -33 -200 -102 -237 -49 -27 -167 -22 -207 8 -59 44 -68 75 -68 229 0 125 2 144 22 181 41 76 126 108 218 83z"/>
<path d="M9958 2543 c-13 -3 -18 -15 -18 -42 l0 -38 48 5 c92 8 149 -41 197 -170 l17 -46 -117 -294 c-65 -161 -126 -314 -136 -340 l-19 -48 53 0 c50 0 53 2 65 33 70 177 169 444 183 492 10 35 19 54 23 45 3 -8 23 -67 45 -130 21 -63 65 -188 96 -277 l58 -163 54 0 c49 0 54 2 48 18 -4 9 -15 40 -25 67 -92 253 -283 743 -304 779 -29 50 -74 87 -125 105 -33 11 -109 13 -143 4z"/>
<path d="M4149 2279 c-206 -30 -347 -152 -414 -358 -23 -71 -24 -207 -1 -286 55 -188 200 -323 397 -370 161 -38 385 -6 520 74 l37 22 -63 59 c-34 33 -70 60 -79 60 -17 0 -17 -2 -2 -24 15 -24 14 -25 -26 -61 -114 -104 -287 -128 -433 -61 -299 136 -298 611 1 817 87 60 137 73 274 74 92 0 133 -4 155 -15 l30 -15 3 -114 3 -114 -106 5 -106 5 52 -29 c51 -27 56 -28 202 -28 l150 0 -27 21 c-26 20 -26 22 -26 149 l0 128 -32 7 c-18 4 -69 15 -113 25 -84 20 -252 41 -307 39 -18 -1 -58 -5 -89 -10z"/>
<path d="M9458 2246 c-60 -21 -84 -42 -107 -89 -40 -83 -24 -176 42 -234 48 -42 121 -64 237 -69 139 -7 140 -8 140 -52 0 -95 -37 -143 -119 -157 -31 -5 -107 10 -197 40 -16 5 -23 0 -32 -20 -20 -45 -15 -52 60 -76 142 -45 295 -24 346 48 35 49 41 106 42 366 l0 247 -39 0 -39 0 -7 -50 c-4 -27 -8 -50 -9 -50 -2 0 -21 18 -44 40 -67 63 -186 87 -274 56z m177 -77 c80 -22 135 -106 135 -206 l0 -43 -74 0 c-93 0 -174 15 -206 38 -37 27 -63 86 -56 126 15 78 98 113 201 85z"/>
<path d="M9110 1770 l0 -480 45 0 45 0 0 480 0 480 -45 0 -45 0 0 -480z"/>
<path d="M5050 2227 c-74 -22 -117 -47 -160 -94 -66 -71 -85 -122 -85 -228 1 -78 4 -97 28 -143 37 -70 96 -128 166 -161 49 -23 68 -26 161 -26 94 0 110 3 155 27 53 28 123 96 148 144 64 125 30 305 -76 401 -84 75 -231 111 -337 80z m195 -46 c87 -39 121 -114 112 -247 -10 -141 -65 -256 -143 -301 -75 -43 -179 -23 -237 46 -76 91 -45 338 56 448 67 73 134 90 212 54z"/>
<path d="M5817 2229 c-200 -47 -308 -269 -223 -456 33 -73 100 -140 172 -173 74 -34 210 -39 287 -10 198 75 270 332 140 507 -83 113 -233 166 -376 132z m222 -62 c56 -37 83 -99 84 -190 1 -178 -85 -343 -188 -363 -92 -17 -177 23 -215 101 -20 42 -22 57 -18 143 4 66 13 116 28 155 62 164 194 230 309 154z"/>
<path d="M7534 2230 c-92 -29 -180 -124 -210 -227 -22 -77 -16 -193 14 -254 53 -108 150 -170 277 -176 73 -4 85 -2 135 24 35 18 65 43 82 68 50 74 52 72 -135 148 -129 52 -178 67 -208 65 -37 -3 -31 -6 98 -63 l138 -61 -2 -33 c-3 -63 -86 -120 -156 -107 -139 26 -184 205 -97 383 72 145 210 204 358 153 l57 -20 -35 31 c-65 55 -108 71 -200 75 -47 2 -99 -1 -116 -6z"/>
<path d="M7034 2188 c14 -20 16 -82 16 -475 l0 -452 -42 -3 -43 -3 39 -18 c28 -12 65 -17 132 -17 93 0 94 0 75 19 -11 11 -22 39 -26 63 -3 24 -5 224 -3 446 3 458 -2 432 87 432 42 0 43 1 25 15 -14 11 -50 14 -147 15 l-128 0 15 -22z"/>
<path d="M8040 1656 c0 -8 5 -18 10 -21 6 -3 10 1 10 9 0 8 -4 18 -10 21 -5 3 -10 -1 -10 -9z"/>
<path d="M8079 1625 c-5 -50 -4 -63 7 -53 3 3 4 28 2 54 l-3 49 -6 -50z"/>
<path d="M8030 1620 c0 -7 3 -10 7 -7 3 4 3 10 0 14 -4 3 -7 0 -7 -7z"/>
<path d="M8060 1610 c0 -7 3 -10 7 -7 3 4 3 10 0 14 -4 3 -7 0 -7 -7z"/>
<path d="M8016 1583 c-6 -14 -5 -15 5 -6 7 7 10 15 7 18 -3 3 -9 -2 -12 -12z"/>
<path d="M5015 966 c-53 -24 -78 -60 -83 -120 -8 -96 51 -166 138 -166 80 0 134 57 134 141 0 106 -102 185 -189 145z m91 -51 c67 -46 48 -172 -28 -191 -22 -5 -33 0 -58 24 -25 26 -30 38 -30 80 0 40 5 54 26 76 30 29 59 33 90 11z"/>
<path d="M6835 966 c-54 -24 -85 -71 -85 -128 0 -99 54 -158 145 -158 42 0 52 5 86 39 36 36 39 42 39 97 0 91 -42 145 -120 158 -20 4 -48 0 -65 -8z m100 -60 c69 -69 17 -202 -70 -180 -60 15 -79 131 -30 179 31 32 69 32 100 1z"/>
<path d="M3720 963 c0 -4 23 -69 52 -145 l51 -138 37 0 37 0 47 138 c25 75 46 141 46 145 0 5 -14 7 -32 5 -27 -3 -33 -8 -42 -43 -11 -39 -12 -40 -62 -43 l-51 -3 -13 46 c-11 40 -16 45 -41 45 -16 0 -29 -3 -29 -7z m170 -120 c0 -5 -9 -34 -19 -67 l-18 -58 -16 49 c-9 27 -19 57 -23 66 -5 14 0 17 35 17 23 0 41 -3 41 -7z"/>
<path d="M4045 825 l0 -145 33 0 c17 0 32 4 32 8 0 5 18 37 41 72 22 35 49 80 60 99 l19 36 0 -108 c0 -104 1 -107 23 -107 22 0 22 1 22 145 l0 145 -25 0 c-21 -1 -37 -19 -92 -107 l-68 -106 0 106 c0 104 -1 107 -22 107 -23 0 -23 -1 -23 -145z"/>
<path d="M4360 825 l0 -145 63 0 c110 0 171 50 170 139 -1 99 -61 151 -172 151 l-61 0 0 -145z m124 95 c29 -11 56 -57 56 -95 0 -57 -51 -105 -111 -105 -17 0 -19 9 -19 98 0 54 3 102 7 105 9 10 38 9 67 -3z"/>
<path d="M4660 825 l0 -145 64 0 c67 0 115 12 128 33 17 26 8 76 -16 94 l-23 18 22 30 c12 16 29 49 39 73 l16 43 -31 -3 c-27 -3 -34 -9 -46 -43 -15 -44 -45 -75 -74 -75 -17 0 -19 8 -19 60 l0 60 -30 0 -30 0 0 -145z m137 -26 c19 -17 16 -57 -6 -69 -11 -5 -31 -10 -45 -10 -25 0 -26 3 -26 51 l0 52 32 -7 c17 -3 37 -11 45 -17z"/>
<path d="M5270 825 l0 -145 30 0 30 0 0 145 0 145 -30 0 -30 0 0 -145z"/>
<path d="M5410 825 l0 -145 63 0 c147 1 214 92 155 210 -30 58 -72 80 -155 80 l-63 0 0 -145z m153 77 c26 -27 33 -91 13 -130 -11 -22 -28 -35 -56 -43 -25 -8 -44 -9 -48 -3 -5 5 -6 53 -4 108 l4 98 36 -6 c20 -3 44 -14 55 -24z"/>
<path d="M5800 963 c0 -5 23 -70 51 -145 l52 -138 36 0 36 0 48 138 c26 75 47 140 47 145 0 4 -15 7 -33 7 -31 0 -34 -3 -43 -42 l-9 -43 -52 -3 -52 -3 -12 45 c-10 41 -14 46 -40 46 -16 0 -29 -3 -29 -7z m170 -120 c0 -5 -9 -35 -19 -67 l-18 -59 -18 54 c-10 30 -20 60 -23 67 -3 8 8 12 37 12 23 0 41 -3 41 -7z"/>
<path d="M6125 825 l0 -145 63 0 c83 0 128 19 136 57 14 62 -24 106 -101 119 l-43 7 0 53 c0 52 -1 54 -27 54 l-28 0 0 -145z m127 -17 c42 -34 16 -88 -42 -88 -29 0 -30 1 -30 50 0 48 1 50 28 50 16 0 35 -6 44 -12z"/>
<path d="M6390 825 l0 -145 63 0 c109 0 152 38 132 117 -7 28 -72 62 -118 63 -29 0 -29 0 -25 55 3 54 3 55 -24 55 l-28 0 0 -145z m132 -22 c38 -34 11 -83 -48 -83 l-34 0 0 50 c0 49 0 50 32 50 17 0 40 -7 50 -17z"/>
<path d="M7090 825 l0 -145 28 0 c26 0 36 11 92 100 34 55 63 100 65 100 1 0 0 -45 -3 -100 l-5 -100 27 0 26 0 0 145 c0 144 0 145 -22 145 -23 0 -47 -31 -128 -161 l-35 -56 3 108 4 109 -26 0 -26 0 0 -145z"/>
<path d="M11982 226 c-22 -84 -112 -175 -204 -207 l-53 -18 138 -1 137 0 0 135 c0 74 -1 135 -3 135 -2 0 -8 -20 -15 -44z"/>
<path d="M1 133 l-1 -133 133 1 c77 0 122 4 107 8 -109 34 -197 122 -231 231 -4 15 -8 -30 -8 -107z"/>
</g>


</svg>