<!DOCTYPE svg PUBLIC "-//W3C//DTD SVG 20010904//EN" "http://www.w3.org/TR/2001/REC-SVG-20010904/DTD/svg10.dtd">
<svg version="1.0" xmlns="http://www.w3.org/2000/svg" width="698px" height="237px" viewBox="0 0 6980 2370" preserveAspectRatio="xMidYMid meet">
<g id="layer101" fill="#000000" stroke="none">
 <path d="M293 2300 c-49 -11 -117 -55 -147 -95 -65 -85 -61 -22 -61 -985 0 -732 2 -883 14 -925 20 -70 106 -156 176 -176 72 -20 6385 -21 6454 -1 59 18 152 111 169 168 9 31 12 262 12 925 0 867 -1 885 -21 929 -26 58 -72 105 -134 138 l-50 27 -3190 2 c-1754 0 -3204 -2 -3222 -7z"/>
 </g>
<g id="layer102" fill="#fefefe" stroke="none">
 <path d="M945 1746 c-236 -45 -447 -86 -467 -90 l-38 -7 0 -344 c0 -190 1 -345 3 -345 1 0 216 -43 477 -95 l474 -95 82 27 c74 24 83 29 88 55 3 16 6 225 6 465 l1 437 -73 38 c-40 20 -84 37 -98 36 -14 0 -218 -37 -455 -82z m215 -321 l0 -115 -68 0 c-38 0 -103 -3 -145 -6 l-77 -7 0 95 0 95 123 22 c67 13 127 24 132 26 33 11 35 5 35 -110z m-322 -32 l-3 -88 -87 -3 -88 -3 0 75 0 75 38 7 c20 3 53 10 72 14 74 17 71 20 68 -77z m0 -210 c3 -96 10 -91 -108 -71 l-70 12 0 73 0 74 88 -3 87 -3 3 -82z m322 -28 c0 -89 -3 -115 -13 -115 -17 0 -236 39 -259 46 -15 5 -18 18 -18 95 l0 89 145 0 145 0 0 -115z"/>
 <path d="M3295 1736 c-60 -26 -95 -93 -95 -178 1 -95 49 -166 129 -188 38 -10 105 2 116 20 17 28 25 0 25 -90 l0 -100 45 0 45 0 0 254 c0 140 3 261 6 270 5 13 -2 16 -40 16 -43 0 -46 -2 -46 -27 l0 -26 -22 20 c-50 45 -105 55 -163 29z m145 -84 c16 -13 24 -32 28 -70 8 -92 -20 -142 -81 -142 -64 0 -94 53 -89 153 4 64 91 100 142 59z"/>
 <path d="M3725 1732 c-49 -24 -73 -49 -91 -99 -34 -97 4 -206 89 -249 47 -25 136 -22 184 6 115 64 118 262 6 331 -48 30 -137 35 -188 11z m140 -78 c47 -51 45 -146 -5 -196 -36 -35 -61 -35 -101 0 -26 23 -33 38 -37 80 -8 85 28 142 91 142 17 0 37 -10 52 -26z"/>
 <path d="M4612 1740 c-43 -10 -45 -13 -37 -50 6 -27 11 -31 28 -26 76 22 120 19 131 -9 10 -28 -6 -46 -69 -74 -69 -32 -85 -51 -85 -105 0 -74 83 -124 177 -107 55 11 56 12 48 51 -5 24 -11 30 -23 25 -63 -24 -116 -11 -110 28 2 15 20 30 59 48 75 36 103 72 96 122 -11 84 -100 124 -215 97z"/>
 <path d="M5085 1744 c-37 -9 -75 -26 -75 -34 0 -4 5 -21 11 -38 l10 -30 45 15 c50 17 124 13 149 -7 21 -17 19 -73 -2 -92 -10 -9 -48 -30 -84 -47 -80 -38 -109 -67 -116 -119 -8 -56 1 -84 38 -120 39 -38 110 -57 178 -47 68 9 81 21 69 63 -7 26 -13 32 -26 27 -9 -4 -40 -9 -68 -12 -43 -5 -54 -2 -79 19 -23 20 -27 30 -21 51 5 22 24 36 93 70 62 30 94 52 110 76 47 70 19 166 -60 204 -38 19 -134 30 -172 21z"/>
 <path d="M5463 1730 c-18 -11 -34 -21 -34 -22 -1 -2 -5 -61 -8 -133 l-6 -130 -28 -3 c-25 -3 -28 -7 -25 -35 2 -27 8 -33 31 -35 24 -3 27 -7 27 -42 0 -37 2 -40 38 -49 53 -15 52 -16 52 38 l0 50 43 3 c39 3 42 5 45 36 3 32 3 32 -42 32 l-46 0 0 103 c0 112 6 127 52 127 25 0 28 3 28 34 0 22 -6 36 -16 40 -31 12 -79 6 -111 -14z"/>
 <path d="M5724 1731 c-74 -34 -111 -105 -101 -198 11 -103 80 -165 185 -166 80 0 136 33 172 102 17 34 16 141 -3 177 -47 90 -159 128 -253 85z m140 -81 c80 -96 7 -257 -93 -206 -38 20 -54 64 -49 133 4 46 10 61 32 80 38 33 78 30 110 -7z"/>
 <path d="M6399 1741 c-94 -31 -138 -117 -118 -228 17 -91 84 -146 177 -146 89 0 143 55 150 153 l4 60 -121 0 c-115 0 -121 1 -121 20 0 54 85 91 166 73 35 -8 44 -7 49 4 10 27 5 51 -12 58 -29 11 -146 15 -174 6z m121 -246 c0 -34 -33 -65 -70 -65 -36 0 -80 39 -80 70 0 18 6 20 75 20 73 0 75 -1 75 -25z"/>
 <path d="M2036 1503 c-32 -130 -61 -244 -63 -255 -5 -16 1 -18 45 -18 58 0 48 -23 97 224 33 166 45 206 45 152 0 -15 19 -106 42 -202 l42 -175 50 3 50 3 41 197 40 196 17 -86 c9 -48 29 -138 44 -199 l26 -113 44 0 c33 0 44 4 44 16 0 14 -98 388 -121 462 -10 30 -13 32 -59 32 -48 0 -49 -1 -59 -37 -15 -58 -60 -274 -64 -305 -4 -32 -17 -50 -17 -22 0 10 -19 96 -42 191 l-42 173 -51 0 -51 0 -58 -237z"/>
 <path d="M2630 1555 l0 -186 48 3 47 3 0 180 0 180 -47 3 -48 3 0 -186z"/>
 <path d="M2810 1554 l0 -185 38 3 c30 2 38 7 40 26 l3 23 29 -24 c42 -36 91 -42 143 -19 66 29 77 61 77 226 l0 136 -45 0 -45 0 0 -114 c0 -128 -8 -161 -44 -178 -33 -14 -79 4 -95 38 -6 14 -11 76 -11 139 l0 115 -45 0 -45 0 0 -186z"/>
 <path d="M4117 1733 c-3 -5 -26 -80 -51 -168 -26 -88 -49 -168 -52 -177 -5 -15 2 -18 40 -18 25 0 47 4 50 8 7 11 56 226 58 256 3 32 18 23 19 -12 0 -15 14 -76 32 -137 l32 -110 39 0 39 0 34 120 c18 66 34 130 35 142 3 33 18 16 18 -19 0 -18 12 -80 26 -140 l26 -108 44 0 c27 0 44 5 44 12 0 6 -25 89 -55 185 l-56 173 -44 0 -44 0 -16 -57 c-10 -32 -25 -89 -35 -127 -11 -46 -19 -63 -23 -50 -3 10 -20 67 -38 127 l-32 107 -43 0 c-24 0 -45 -3 -47 -7z"/>
 <path d="M6050 1555 l0 -185 40 0 c38 0 40 2 40 30 0 37 4 37 38 0 16 -17 39 -30 57 -32 29 -3 30 -1 33 40 3 40 2 42 -23 42 -16 0 -38 12 -56 29 -29 29 -29 31 -29 145 l0 116 -50 0 -50 0 0 -185z"/>
 <path d="M2641 1306 c-16 -19 -10 -66 10 -79 26 -16 68 0 75 30 4 14 2 33 -3 42 -13 21 -66 26 -82 7z"/>
 <path d="M2395 946 c-53 -24 -70 -52 -70 -117 0 -53 3 -62 33 -91 28 -28 39 -33 82 -33 42 0 54 5 81 31 94 95 -6 263 -126 210z m94 -52 c23 -29 28 -92 10 -125 -27 -52 -100 -42 -125 17 -39 94 56 183 115 108z"/>
 <path d="M3453 945 c-62 -27 -91 -112 -59 -173 33 -63 94 -86 159 -58 63 26 87 118 47 183 -31 52 -93 72 -147 48z m94 -47 c18 -17 23 -32 23 -69 0 -60 -24 -92 -70 -92 -46 0 -70 32 -70 92 0 81 64 119 117 69z"/>
 <path d="M3702 950 c-27 -11 -45 -55 -37 -87 7 -30 61 -63 102 -63 37 0 48 -12 33 -39 -13 -26 -38 -33 -78 -22 -20 6 -34 6 -38 -1 -12 -19 17 -33 71 -33 80 0 89 12 95 140 4 94 3 105 -12 105 -9 0 -19 -4 -23 -9 -3 -6 -19 -4 -40 5 -39 16 -42 16 -73 4z m90 -47 c10 -9 18 -29 18 -45 0 -25 -4 -28 -31 -28 -46 0 -69 16 -69 49 0 15 3 31 7 34 12 13 56 7 75 -10z"/>
 <path d="M3972 945 c-36 -16 -62 -64 -62 -116 0 -93 92 -160 157 -114 22 15 22 15 25 -52 3 -62 5 -68 26 -71 l22 -3 0 180 c0 174 -1 181 -20 181 -11 0 -20 -6 -20 -14 0 -11 -8 -10 -37 5 -44 22 -48 23 -91 4z m96 -41 c18 -13 22 -25 22 -71 0 -38 -5 -62 -17 -75 -19 -21 -76 -24 -92 -4 -21 25 -30 74 -20 111 15 53 62 71 107 39z"/>
 <path d="M4715 952 c-55 -19 -85 -60 -85 -120 0 -58 21 -96 66 -117 101 -48 204 54 163 162 -22 57 -90 92 -144 75z m84 -58 c37 -47 23 -131 -25 -153 -64 -29 -125 55 -94 129 23 56 84 68 119 24z"/>
 <path d="M2000 780 l0 -170 75 0 c119 0 175 35 194 120 11 50 1 116 -25 155 -27 41 -91 65 -172 65 l-72 0 0 -170z m179 111 c56 -40 68 -156 20 -207 -27 -28 -82 -47 -124 -42 l-30 3 -3 139 -3 139 56 -6 c32 -3 67 -14 84 -26z"/>
 <path d="M2635 863 c-14 -48 -30 -101 -35 -117 -13 -38 -13 -38 13 -34 19 3 25 16 46 96 23 89 25 92 36 65 6 -15 19 -58 29 -95 16 -59 21 -68 41 -68 17 0 25 8 30 28 3 15 16 58 27 96 l21 70 26 -95 c23 -82 29 -94 49 -97 19 -3 23 0 18 15 -56 175 -74 218 -94 221 -20 3 -34 -32 -76 -182 -1 -6 -8 12 -16 40 -7 27 -16 54 -19 59 -3 6 -11 26 -16 45 -7 24 -17 36 -32 38 -19 3 -24 -7 -48 -85z"/>
 <path d="M2990 830 c0 -113 1 -120 20 -120 12 0 20 7 20 17 0 15 1 15 19 -1 10 -9 34 -19 53 -22 27 -5 41 -1 64 19 28 24 29 29 32 126 l4 101 -26 0 c-26 0 -26 0 -26 -86 0 -100 -9 -124 -49 -124 -48 0 -61 26 -61 123 0 86 0 87 -25 87 l-25 0 0 -120z"/>
 <path d="M3280 770 c0 -173 1 -180 20 -180 19 0 20 7 20 180 0 173 -1 180 -20 180 -19 0 -20 -7 -20 -180z"/>
 <path d="M4340 849 c0 -92 -2 -101 -20 -106 -11 -3 -20 -11 -20 -18 0 -7 9 -15 20 -18 15 -4 20 -14 20 -37 0 -44 38 -80 85 -80 29 0 36 3 33 18 -2 10 -11 16 -22 14 -26 -5 -56 27 -56 60 0 24 4 28 30 28 20 0 30 5 30 15 0 10 -10 15 -30 15 l-30 0 0 105 c0 98 -1 105 -20 105 -19 0 -20 -7 -20 -101z"/>
 <path d="M4480 830 c0 -113 1 -120 20 -120 12 0 20 7 20 16 0 13 5 12 26 -5 34 -26 54 -27 54 -1 0 11 -7 20 -15 20 -8 0 -24 9 -35 20 -17 17 -20 33 -20 105 0 84 0 85 -25 85 l-25 0 0 -120z"/>
 <path d="M4930 830 c0 -113 1 -120 20 -120 12 0 20 7 20 16 0 13 5 12 26 -5 35 -28 69 -27 98 3 23 22 25 22 40 5 21 -25 62 -34 92 -20 37 16 54 68 54 161 0 79 0 80 -25 80 -25 0 -25 -1 -25 -88 0 -102 -11 -125 -55 -120 -41 4 -55 37 -55 131 0 70 -2 77 -20 77 -18 0 -20 -7 -20 -86 0 -101 -9 -124 -50 -124 -46 0 -60 30 -60 127 0 76 -2 83 -20 83 -19 0 -20 -7 -20 -120z"/>
 <path d="M710 727 c0 -110 1 -115 29 -154 67 -93 221 -112 296 -37 l35 35 0 94 c0 78 -3 95 -15 95 -12 0 -15 -16 -15 -84 0 -74 -3 -86 -24 -109 -32 -35 -88 -49 -144 -36 -102 22 -132 72 -132 213 0 79 -3 96 -15 96 -12 0 -15 -19 -15 -113z"/>
 <path d="M900 754 c0 -25 5 -55 11 -67 14 -27 60 -77 71 -77 14 0 9 37 -8 51 -25 20 -44 65 -44 104 0 24 -4 35 -15 35 -11 0 -15 -12 -15 -46z"/>
 <path d="M1190 691 c0 -52 -10 -67 -50 -73 -15 -2 -26 -11 -28 -22 -4 -17 0 -18 34 -13 56 9 84 45 84 108 0 42 -3 49 -20 49 -17 0 -20 -7 -20 -49z"/>
 </g>

</svg>